<svg width="51" height="50" viewBox="0 0 51 50" fill="none" xmlns="http://www.w3.org/2000/svg">
<path d="M25.5 4.6875C14.25 4.6875 5.1875 13.75 5.1875 25C5.1875 36.25 14.25 45.3125 25.5 45.3125C36.75 45.3125 45.8125 36.25 45.8125 25C45.8125 22.8125 45.5187 20.6344 44.7375 18.6031L42.2 21.0938C42.5125 22.3438 42.6891 23.5938 42.6891 25C42.6891 34.5312 35.0328 42.1875 25.5016 42.1875C15.9703 42.1875 8.3125 34.5312 8.3125 25C8.3125 15.4688 15.9688 7.8125 25.5 7.8125C30.1875 7.8125 34.3969 9.67812 37.3656 12.6469L39.5625 10.45C35.9688 6.85625 30.9688 4.6875 25.5 4.6875ZM43.125 11.375L25.5 29.0047L18.8125 22.3172L16.5625 24.5625L24.375 32.375L25.5 33.4469L26.625 32.3734L45.375 13.6234L43.125 11.3734V11.375Z" fill="#82C244"/>
</svg>
