<svg width="46" height="46" viewBox="0 0 46 46" fill="none" xmlns="http://www.w3.org/2000/svg">
<g id="Arrow-left">
<path id="Vector" fill-rule="evenodd" clip-rule="evenodd" d="M43.125 23C43.125 17.6625 41.0047 12.5436 37.2305 8.76948C33.4564 4.99531 28.3375 2.875 23 2.875C17.6625 2.875 12.5436 4.99531 8.76948 8.76948C4.99531 12.5436 2.875 17.6625 2.875 23C2.875 28.3375 4.99531 33.4564 8.76948 37.2305C12.5436 41.0047 17.6625 43.125 23 43.125C28.3375 43.125 33.4564 41.0047 37.2305 37.2305C41.0047 33.4564 43.125 28.3375 43.125 23ZM31.625 25.1563C32.1969 25.1563 32.7453 24.9291 33.1497 24.5247C33.5541 24.1203 33.7812 23.5719 33.7812 23C33.7812 22.4281 33.5541 21.8797 33.1497 21.4753C32.7453 21.0709 32.1969 20.8438 31.625 20.8438L19.5788 20.8438L21.6488 18.7737C21.8606 18.5763 22.0305 18.3383 22.1484 18.0738C22.2662 17.8093 22.3296 17.5238 22.3347 17.2343C22.3398 16.9447 22.2866 16.6571 22.1781 16.3887C22.0697 16.1202 21.9082 15.8763 21.7035 15.6715C21.4987 15.4668 21.2548 15.3053 20.9863 15.1969C20.7179 15.0884 20.4303 15.0352 20.1407 15.0403C19.8512 15.0454 19.5657 15.1088 19.3012 15.2266C19.0367 15.3445 18.7987 15.5144 18.6012 15.7263L12.8512 21.4763C12.4475 21.8805 12.2206 22.4286 12.2206 23C12.2206 23.5714 12.4475 24.1195 12.8512 24.5238L18.6012 30.2738C18.7987 30.4856 19.0367 30.6555 19.3012 30.7734C19.5657 30.8912 19.8512 30.9546 20.1407 30.9597C20.4303 30.9648 20.7179 30.9116 20.9863 30.8031C21.2548 30.6947 21.4987 30.5332 21.7035 30.3285C21.9082 30.1237 22.0697 29.8798 22.1781 29.6113C22.2866 29.3429 22.3398 29.0553 22.3347 28.7657C22.3296 28.4762 22.2662 28.1907 22.1484 27.9262C22.0305 27.6617 21.8606 27.4237 21.6488 27.2262L19.5788 25.1563L31.625 25.1563Z" fill="#699BF7"/>
</g>
</svg>
