<svg width="46" height="46" viewBox="0 0 46 46" fill="none" xmlns="http://www.w3.org/2000/svg">
<g id="Arrow-right">
<path id="Vector" fill-rule="evenodd" clip-rule="evenodd" d="M2.87499 23.0012C2.87525 28.3387 4.99581 33.4575 8.77016 37.2314C12.5445 41.0054 17.6635 43.1255 23.001 43.1252C28.3384 43.125 33.4572 41.0044 37.2312 37.2301C41.0052 33.4557 43.1253 28.3368 43.125 22.9993C43.1247 17.6618 41.0042 12.543 37.2298 8.76903C33.4555 4.99504 28.3365 2.87498 22.999 2.87524C17.6615 2.8755 12.5428 4.99605 8.76879 8.7704C4.9948 12.5448 2.87474 17.6637 2.87499 23.0012ZM14.3749 20.8444C13.803 20.8444 13.2546 21.0716 12.8502 21.476C12.4459 21.8804 12.2187 22.4289 12.2187 23.0008C12.2188 23.5726 12.446 24.1211 12.8504 24.5254C13.2548 24.9298 13.8032 25.1569 14.3751 25.1569L26.4213 25.1563L24.3514 27.2264C24.1396 27.4238 23.9697 27.6619 23.8519 27.9264C23.734 28.1909 23.6707 28.4764 23.6656 28.766C23.6605 29.0555 23.7137 29.3431 23.8222 29.6115C23.9307 29.88 24.0921 30.1239 24.2969 30.3287C24.5016 30.5334 24.7455 30.6948 25.014 30.8032C25.2825 30.9117 25.5701 30.9649 25.8596 30.9598C26.1492 30.9547 26.4347 30.8913 26.6992 30.7734C26.9637 30.6556 27.2017 30.4856 27.3991 30.2738L33.1488 24.5235C33.5526 24.1192 33.7794 23.5711 33.7793 22.9997C33.7793 22.4283 33.5525 21.8803 33.1487 21.476L27.3984 15.7263C27.201 15.5144 26.9629 15.3445 26.6984 15.2267C26.4339 15.1088 26.1484 15.0455 25.8589 15.0404C25.5693 15.0353 25.2818 15.0886 25.0133 15.197C24.7448 15.3055 24.5009 15.4669 24.2962 15.6717C24.0914 15.8765 23.93 16.1204 23.8216 16.3889C23.7131 16.6574 23.6599 16.9449 23.665 17.2345C23.6701 17.524 23.7335 17.8095 23.8514 18.074C23.9693 18.3385 24.1392 18.5765 24.351 18.7739L26.4211 20.8438L14.3749 20.8444Z" fill="#699BF7"/>
</g>
</svg>
