<svg aria-hidden="true" style="width:0;height:0;position:absolute;overflow:hidden" xmlns="http://www.w3.org/2000/svg"><defs><symbol id="icon-menu" viewBox="0 0 32 32"><path d="M2.666 8A1.335 1.335 0 0 1 4 6.666h24A1.33 1.33 0 0 1 29.333 8 1.333 1.333 0 0 1 28 9.334H4A1.335 1.335 0 0 1 2.666 8zm0 8.043A1.33 1.33 0 0 1 4 14.71h24a1.333 1.333 0 1 1 0 2.666H4a1.333 1.333 0 0 1-1.334-1.333zM4 22.752a1.337 1.337 0 0 0-1.334 1.333A1.33 1.33 0 0 0 4 25.418h24a1.333 1.333 0 1 0 0-2.666H4z"/></symbol><symbol id="icon-rocket" viewBox="0 0 32 32"><path d="m7.233 13.633 3.533 1.5c.4-.8.828-1.589 1.283-2.367s.939-1.522 1.45-2.233L10.866 10l-3.633 3.633zm5.134 2.7 4.433 4.433c1.267-.578 2.456-1.233 3.567-1.967s2.011-1.444 2.7-2.133c1.8-1.8 3.122-3.644 3.967-5.533s1.3-4.022 1.367-6.4c-2.378.067-4.511.522-6.4 1.367s-3.733 2.167-5.533 3.967c-.689.689-1.4 1.589-2.133 2.7s-1.389 2.3-1.967 3.567zm7.633-3.2c-.444-.444-.667-.995-.667-1.65s.222-1.206.667-1.65.994-.667 1.65-.667c.656 0 1.206.222 1.65.667s.667.994.667 1.65c0 .655-.222 1.206-.667 1.65s-.994.667-1.65.667-1.206-.222-1.65-.667zM19.5 25.9l3.633-3.633-.533-2.633c-.711.511-1.456.994-2.233 1.45S18.8 21.967 18 22.367l1.5 3.533zM30.367 2.767c.2 3.022-.178 5.778-1.133 8.267s-2.533 4.833-4.733 7.033l-.133.133.733 3.667c.067.333.05.656-.05.967s-.272.589-.517.833l-5.7 5.733-2.833-6.6-5.667-5.667-6.6-2.833 5.733-5.7c.244-.244.522-.417.833-.517s.633-.117.967-.05l3.667.733c.022-.022.044-.039.067-.05s.044-.028.067-.05c2.2-2.2 4.544-3.783 7.033-4.75s5.244-1.35 8.267-1.15zm-24.4 18.4c.778-.778 1.728-1.172 2.85-1.183s2.072.372 2.85 1.15c.778.778 1.161 1.728 1.15 2.85s-.406 2.072-1.183 2.85c-.578.578-1.472 1.055-2.683 1.433s-3.028.733-5.45 1.067c.333-2.422.683-4.244 1.05-5.467s.839-2.122 1.417-2.7zm1.4 1.433c-.311.333-.589.856-.833 1.567s-.456 1.622-.633 2.733c1.111-.178 2.022-.389 2.733-.633s1.233-.522 1.567-.833c.422-.378.639-.85.65-1.417s-.183-1.061-.583-1.483c-.422-.4-.917-.595-1.483-.583s-1.039.228-1.417.65z"/></symbol><symbol id="icon-touch" viewBox="0 0 32 32"><path d="M15.5 1.333c2.022 0 3.75.706 5.183 2.117s2.15 3.128 2.15 5.15c0 1.156-.25 2.244-.75 3.267s-1.206 1.889-2.117 2.6h-1.133V12.8c.644-.511 1.139-1.133 1.483-1.867s.517-1.511.517-2.333c0-1.467-.522-2.711-1.567-3.733s-2.3-1.533-3.767-1.533-2.722.511-3.767 1.533-1.567 2.267-1.567 3.733c0 .822.172 1.6.517 2.333s.839 1.356 1.483 1.867v2.4c-1.244-.645-2.222-1.556-2.933-2.733S8.165 10 8.165 8.6c0-2.022.717-3.739 2.15-5.15s3.161-2.117 5.183-2.117zm-1.266 28c-.378 0-.733-.072-1.067-.217s-.622-.339-.867-.583l-6.867-6.867L7.3 19.733c.311-.311.661-.55 1.05-.717s.794-.194 1.217-.083l2.6.6V8.666c0-.933.322-1.722.967-2.367s1.433-.967 2.367-.967c.933 0 1.722.322 2.367.967s.967 1.433.967 2.367v5.733h.867c.111 0 .211.022.3.067s.189.089.3.133l4.933 2.4c.533.244.928.639 1.183 1.183s.328 1.106.217 1.683l-1.2 7.267c-.111.645-.422 1.172-.933 1.583s-1.089.617-1.733.617h-8.533zm-.267-2h9.367l1.433-8.3-6.1-3.033h-1.833V8.667c0-.4-.122-.722-.367-.967s-.567-.367-.967-.367-.722.122-.967.367c-.245.244-.367.567-.367.967v13.3l-5.133-1.1-.767.767 5.7 5.7zm9.367 0z"/></symbol><symbol id="icon-arrow-l" viewBox="0 0 18 32"><path d="m.48 16.965 14.861 14.16a1.334 1.334 0 0 0 1.84 0l.016-.016a1.237 1.237 0 0 0 .382-.889 1.22 1.22 0 0 0-.382-.889L3.202 15.998 17.197 2.67a1.222 1.222 0 0 0 .282-1.373 1.231 1.231 0 0 0-.282-.405l-.016-.016a1.336 1.336 0 0 0-1.84 0L.48 15.036a1.331 1.331 0 0 0 0 1.93z"/></symbol><symbol id="icon-arrow-r" viewBox="0 0 18 32"><path d="M17.653 15.035 2.792.875a1.334 1.334 0 0 0-1.84 0L.936.891a1.222 1.222 0 0 0-.282 1.373c.065.153.162.291.282.405l13.995 13.333L.936 29.33a1.212 1.212 0 0 0-.381.889 1.236 1.236 0 0 0 .381.889l.016.016a1.334 1.334 0 0 0 1.84 0l14.861-14.16a1.331 1.331 0 0 0 0-1.93z"/></symbol><symbol id="icon-stars" viewBox="0 0 200 32"><path fill="#ffe550" style="fill:var(--color1,#ffe550)" d="M15.64 1.038c.592-1.384 2.61-1.384 3.204 0L22.34 9.2c.25.582.814.98 1.462 1.032l9.08.706c1.54.12 2.162 1.982.99 2.958l-6.918 5.752a1.655 1.655 0 0 0-.557 1.682l-.002-.011 2.114 8.6c.36 1.456-1.274 2.608-2.592 1.828l-7.772-4.61a1.778 1.778 0 0 0-1.816.004l.008-.005-7.774 4.61c-1.318.78-2.95-.372-2.592-1.828l2.114-8.6a1.653 1.653 0 0 0-.558-1.668l-.003-.002-6.916-5.75c-1.172-.978-.548-2.84.992-2.96l9.08-.704a1.738 1.738 0 0 0 1.46-1.021l.004-.011 3.496-8.164zm41.38 0c.59-1.384 2.61-1.384 3.202 0l3.5 8.164c.248.582.812.98 1.46 1.032l9.08.706c1.54.12 2.162 1.982.99 2.958l-6.916 5.752a1.655 1.655 0 0 0-.557 1.682l-.002-.011 2.114 8.6c.358 1.456-1.276 2.608-2.592 1.828l-7.774-4.61a1.778 1.778 0 0 0-1.816.004l.008-.005-7.774 4.61c-1.316.78-2.95-.372-2.592-1.828l2.114-8.6a1.653 1.653 0 0 0-.558-1.668l-.003-.002-6.916-5.752c-1.172-.976-.548-2.84.99-2.96l9.08-.704a1.735 1.735 0 0 0 1.458-1.021l.004-.011 3.5-8.164zm41.378 0c.592-1.384 2.61-1.384 3.204 0l3.496 8.162c.252.582.816.98 1.464 1.032l9.08.706c1.54.12 2.16 1.982.99 2.958l-6.918 5.752a1.655 1.655 0 0 0-.557 1.682l-.002-.011 2.114 8.6c.36 1.456-1.274 2.608-2.592 1.828l-7.772-4.61c-.259-.155-.571-.247-.905-.247s-.646.092-.913.252l.008-.005-7.772 4.61c-1.318.78-2.95-.372-2.592-1.828l2.112-8.6a1.65 1.65 0 0 0-.555-1.667l-.003-.002-6.918-5.752c-1.172-.976-.548-2.84.99-2.96l9.08-.704a1.738 1.738 0 0 0 1.46-1.021l.004-.011 3.498-8.162zm41.382 0c.59-1.384 2.61-1.384 3.202 0L146.48 9.2c.25.582.814.98 1.464 1.032l9.08.706c1.538.12 2.16 1.982.988 2.958l-6.916 5.752a1.655 1.655 0 0 0-.557 1.682l-.002-.011 2.114 8.6c.358 1.456-1.276 2.608-2.592 1.828l-7.774-4.61a1.778 1.778 0 0 0-1.816.004l.008-.005-7.774 4.61c-1.316.78-2.95-.372-2.592-1.828l2.114-8.6a1.653 1.653 0 0 0-.558-1.668l-.003-.002-6.916-5.752c-1.172-.976-.548-2.84.99-2.96l9.08-.704a1.735 1.735 0 0 0 1.458-1.021l.004-.011 3.5-8.162zm41.378 0c.592-1.384 2.61-1.384 3.204 0l3.494 8.162c.25.582.816.98 1.464 1.032l9.08.706c1.538.12 2.162 1.982.99 2.958l-6.918 5.752a1.655 1.655 0 0 0-.557 1.682l-.002-.011 2.114 8.6c.36 1.456-1.274 2.608-2.592 1.828l-7.772-4.61c-.259-.155-.571-.247-.905-.247s-.646.092-.913.252l.008-.005-7.772 4.61c-1.318.78-2.95-.372-2.592-1.828l2.112-8.6a1.653 1.653 0 0 0-.558-1.668l-.003-.002-6.916-5.752c-1.172-.976-.548-2.84.99-2.96l9.08-.704a1.735 1.735 0 0 0 1.458-1.021l.004-.011 3.504-8.162z"/></symbol><symbol id="icon-star" viewBox="0 0 17 16"><path fill="#ffe550" style="fill:var(--color1,#ffe550)" d="M15.421 1.037c.584-1.383 2.575-1.383 3.159 0l3.449 8.164a1.71 1.71 0 0 0 1.443 1.032l8.952.707c1.517.12 2.132 1.983.976 2.958l-6.821 5.752a1.67 1.67 0 0 0-.551 1.67l2.084 8.6c.353 1.457-1.257 2.609-2.556 1.828l-7.664-4.609a1.734 1.734 0 0 0-1.783 0l-7.664 4.609c-1.299.781-2.909-.371-2.556-1.828l2.084-8.6a1.67 1.67 0 0 0-.551-1.67L.601 13.898c-1.156-.975-.541-2.838.976-2.958l8.952-.707a1.71 1.71 0 0 0 1.443-1.032l3.449-8.164z"/></symbol><symbol id="icon-modal-close"><path d="M15 4.108 13.892 3 9.5 7.392 5.108 3 4 4.108 8.392 8.5 4 12.892 5.108 14 9.5 9.608 13.892 14 15 12.892 10.608 8.5 15 4.108Z"/></symbol><symbol id="frame-icon" viewBox="0 0 32 32"><path fill="none" stroke="#ff705d" style="stroke:var(--color1,#ff705d)" stroke-linejoin="round" stroke-linecap="round" stroke-width="2.285" d="M16 11.429v6.856m0 8a1.144 1.144 0 1 0-.003-2.286H16a1.144 1.144 0 0 0-.003 2.286H16z"/><path fill="none" stroke="#ff705d" style="stroke:var(--color1,#ff705d)" stroke-linejoin="round" stroke-linecap="round" stroke-width="2.285" d="M18.035 2.4a2.284 2.284 0 0 0-4.06-.012l-.006.013L1.396 27.542a2.285 2.285 0 0 0 2.034 3.314h25.144a2.285 2.285 0 0 0 2.028-3.325l.006.013L18.035 2.397z"/></symbol></defs></svg>