<svg width="66" height="52" fill="none" xmlns="http://www.w3.org/2000/svg"><path d="M22.982 10.49c1.642-3.221 6.233-3.221 7.875 0l2.08 4.079a4.423 4.423 0 0 0 3.244 2.36l4.505.718c3.568.568 4.988 4.955 2.433 7.516l-3.215 3.222a4.442 4.442 0 0 0-1.242 3.828l.71 4.506c.564 3.575-3.152 6.285-6.37 4.645l-4.08-2.077a4.411 4.411 0 0 0-4.005 0l-4.08 2.077c-3.218 1.64-6.934-1.07-6.37-4.645l.71-4.506a4.442 4.442 0 0 0-1.242-3.828l-3.215-3.222c-2.555-2.561-1.135-6.948 2.433-7.516l4.505-.717a4.423 4.423 0 0 0 3.245-2.361l2.079-4.079Z" fill="#FFE550"/><path d="m1.814 33.08-.034.008c.004.12-.002.608-.018 1.463-.005.851-.006 1.41-.004 1.677 0 .255-.006.463-.016.624l.002.546a3.69 3.69 0 0 1-.032.481l-.03.335c-.022.212-.068.326-.137.343-.15.035-.382-.08-.7-.345-.32-.277-.504-.519-.553-.726C.243 37.28.23 35.764.254 32.94c.034-2.827-.042-4.686-.228-5.578a.676.676 0 0 1 .022-.442c.058-.27.356-.522.894-.759.55-.239 1.37-.488 2.46-.746 1.101-.26 1.976-.407 2.623-.439.658-.034 1.012.052 1.06.26.034.138-.04.259-.222.362-.182.104-.343.19-.484.26-.144.059-.332.134-.565.226-.236.08-.454.156-.655.228-.204.06-.469.147-.793.26-.313.11-.604.216-.871.316-.27.088-.634.216-1.09.385-.457.17-.753.276-.889.32.02.032.038.082.054.151.128.54.198 1.837.21 3.887.72-.134 1.48-.332 2.278-.594.81-.264 1.307-.418 1.49-.462.437-.103.676-.063.72.121.084.357-.344.774-1.286 1.252-.93.476-1.986.853-3.168 1.133ZM13.053 29.91a3.275 3.275 0 0 0-.45-1.06c-.211-.327-.456-.543-.735-.647-.74.406-1.278 1.184-1.612 2.332-.326 1.134-.384 2.144-.175 3.03.21.886.558 1.387 1.046 1.502.788-.356 1.355-1.086 1.7-2.188.355-1.117.43-2.107.226-2.97Zm-4.491 1.227c.19-.993.537-1.853 1.044-2.58.516-.742 1.112-1.193 1.79-1.354.688-.162 1.331-.005 1.929.473.595.467.992 1.12 1.19 1.96.196.829.197 1.728.002 2.697a6.137 6.137 0 0 1-1.16 2.553c-.567.73-1.247 1.188-2.039 1.375-.585.139-1.137-.016-1.655-.464-.518-.449-.875-1.087-1.07-1.916-.2-.84-.21-1.755-.031-2.744ZM20.854 28.063a3.28 3.28 0 0 0-.45-1.06c-.21-.327-.456-.542-.735-.646-.74.406-1.277 1.183-1.612 2.331-.326 1.135-.384 2.145-.175 3.03.21.887.558 1.387 1.046 1.503.789-.357 1.355-1.086 1.7-2.189.355-1.116.43-2.106.226-2.97Zm-4.491 1.227c.19-.993.538-1.853 1.044-2.58.516-.742 1.112-1.193 1.79-1.353.688-.163 1.331-.006 1.93.473.594.466.991 1.12 1.19 1.96.195.828.196 1.727 0 2.697a6.137 6.137 0 0 1-1.16 2.552c-.566.73-1.245 1.188-2.037 1.376-.586.138-1.137-.017-1.655-.465-.519-.448-.875-1.087-1.071-1.915-.199-.84-.21-1.755-.031-2.745ZM28.989 17.936c.183-.044.448.076.794.359.354.268.566.552.637.851.07.3.129 1.185.174 2.656.042 1.46.05 2.983.025 4.569-.032 3.555-.18 5.364-.444 5.427-.16.038-.362-.018-.603-.167-.233-.164-.367-.32-.402-.47-.036-.15-.066-.458-.092-.926-.853 1.417-1.698 2.224-2.536 2.423-.505.12-1.018-.002-1.54-.365-.51-.365-.825-.795-.942-1.29-.168-.713-.179-1.603-.031-2.671a9.128 9.128 0 0 1 1.033-3.088c.533-.977 1.207-1.561 2.022-1.754.815-.193 1.498.161 2.051 1.063.009-2.578-.126-4.58-.403-6.01-.081-.345.004-.547.257-.607Zm.11 8.922c-.148-.62-.38-1.119-.7-1.493-.306-.377-.61-.53-.908-.459-.493.117-.926.541-1.299 1.273a7.585 7.585 0 0 0-.741 2.4c-.114.853-.103 1.567.033 2.142a.641.641 0 0 0 .343.448.82.82 0 0 0 .578.063c.448-.106.974-.57 1.58-1.394.616-.827.993-1.718 1.13-2.674l.004-.22-.02-.085ZM40.09 25.824c.222.944-.015 1.838-.712 2.684-.7.834-1.6 1.38-2.702 1.642-1.09.258-2.058.19-2.903-.206-.848-.407-1.331-.864-1.451-1.37-.082-.345-.02-.542.188-.591.183-.044.61.147 1.28.572.253.146.572.265.957.356.397.089.79.087 1.18-.006.804-.19 1.466-.566 1.988-1.126.534-.564.743-1.087.629-1.57-.074-.311-.374-.66-.901-1.045a12.203 12.203 0 0 0-1.7-1.038c-.597-.32-1.16-.679-1.69-1.076-.53-.396-.83-.739-.898-1.027a2.805 2.805 0 0 1-.044-.955c.039-.35.11-.615.212-.797.33-.601.917-1.22 1.76-1.857.855-.64 1.604-1.036 2.247-1.188a1.21 1.21 0 0 1 .92.129c.282.164.451.367.508.608.028.115-.071.236-.296.362-.225.126-.57.305-1.037.537a8.463 8.463 0 0 0-1.201.685c-1.2.82-1.745 1.464-1.633 1.936.06.253.898.802 2.516 1.646.623.327 1.211.74 1.766 1.24.563.487.902.972 1.016 1.455ZM44.044 26.692c.052.219.204.298.456.239.437-.104.936-.35 1.499-.738.571-.402.891-.612.96-.628.207-.049.336.036.387.254.08.334-.174.801-.76 1.401-.573.598-1.141.963-1.703 1.096-.552.13-1.046.09-1.484-.122-.44-.224-.7-.497-.775-.82-.076-.321-.104-.746-.083-1.273.018-.54.056-1.247.116-2.124.068-.89.113-1.625.134-2.2-.51.254-.856.403-1.04.446-.183.044-.389-.005-.616-.146-.218-.155-.348-.318-.389-.49-.065-.277.619-.718 2.05-1.325-.018-1.004-.115-1.874-.289-2.61-.082-.345-.008-.545.222-.6.195-.046.466.024.813.21.344.173.553.415.626.726.074.31.105.88.095 1.709.64-.213 1.156-.365 1.546-.457.689-.164 1.069-.095 1.14.204.04.172-.115.36-.467.566-.34.202-1.078.565-2.215 1.089-.026.966-.084 2.08-.174 3.34-.092 1.249-.109 2-.049 2.253ZM51.738 17.654c.516-.122 1.055.03 1.616.456.559.414.889.834.99 1.26.097.414.054.874-.13 1.38.18.139.283.272.313.399.076.322.132.892.168 1.71.047.815.082 1.347.105 1.597.034.247.058.448.07.603.01.144.014.288.012.435.022.298-.047.467-.208.505-.207.049-.421-.09-.643-.413-.213-.338-.4-.793-.559-1.362-.714 1.542-1.507 2.416-2.38 2.622-.527.125-1.102.024-1.725-.302-.614-.34-.978-.753-1.092-1.236-.163-.69-.112-1.602.154-2.734a10.341 10.341 0 0 1 1.318-3.191c.615-.984 1.28-1.56 1.99-1.73Zm1.51 2.85c-.253-1.07-.592-1.555-1.017-1.454-.447.106-.893.552-1.338 1.337a9.592 9.592 0 0 0-1.005 2.516c-.223.904-.278 1.591-.167 2.063a.605.605 0 0 0 .355.426c.188.077.391.09.61.038.539-.128 1.061-.634 1.567-1.52.503-.896.763-1.9.78-3.009-.007-.18.066-.307.219-.38l-.004-.017Z" fill="#2C2C2C"/><path d="M49.983 32.456c-.492.122-.88.497-1.042.979-3.097 9.18-11.771 15.793-21.994 15.793-6.199 0-11.829-2.431-15.99-6.393a1.481 1.481 0 0 0-1.374-.378c-1.038.257-1.431 1.519-.66 2.262A25.87 25.87 0 0 0 26.946 52c11.501 0 21.256-7.484 24.671-17.852.335-1.017-.598-1.949-1.635-1.692ZM3.034 22.994a1.473 1.473 0 0 0 1.08-1.177c1.969-10.83 11.44-19.045 22.833-19.045 7.408 0 14.003 3.473 18.252 8.88.357.453.94.671 1.5.533.948-.235 1.377-1.34.777-2.114C42.725 3.944 35.296 0 26.947 0 14.14 0 3.497 9.28 1.364 21.49c-.168.963.723 1.738 1.67 1.504ZM66 8.664c-6.138 11.766-8.832 4.005-17.473 8.564C49.392 3.57 58.543 11.88 66 8.664Z" fill="#BBF330"/></svg>