<svg aria-hidden="true" style="width:0;height:0;position:absolute;overflow:hidden" xmlns="http://www.w3.org/2000/svg"><defs><symbol id="sunrise" viewBox="0 0 32 32"><path fill="#ff6b09" style="fill:var(--color1,#ff6b09)" d="M16 5.103c.518 0 .937-.42.937-.938V.937a.938.938 0 1 0-1.875 0v3.228c0 .518.42.938.938.938zM31.063 15.063h-3.228a.937.937 0 0 0 0 1.875h3.228a.937.937 0 1 0 0-1.875zM5.103 16a.938.938 0 0 0-.938-.938H.937a.938.938 0 0 0 0 1.875h3.228c.518 0 .938-.42.938-.937zM24.368 8.569c.24 0 .48-.092.663-.275l2.282-2.282a.938.938 0 0 0-1.326-1.326l-2.282 2.282a.938.938 0 0 0 .663 1.601zM25.031 23.705a.938.938 0 0 0-1.326 1.326l2.282 2.282a.935.935 0 0 0 1.326 0 .938.938 0 0 0 0-1.326l-2.282-2.282zM6.969 23.705l-2.282 2.282a.938.938 0 0 0 1.326 1.326l2.282-2.282a.938.938 0 0 0-1.326-1.326zM6.969 8.294a.935.935 0 0 0 1.326 0 .938.938 0 0 0 0-1.326L6.013 4.686a.938.938 0 0 0-1.326 1.326l2.282 2.282zM20.182 5.937a.936.936 0 0 0 1.226-.506l1.239-2.981a.938.938 0 0 0-1.731-.72l-1.239 2.981a.937.937 0 0 0 .506 1.225zM30.269 20.915l-2.98-1.239a.937.937 0 1 0-.719 1.731l2.98 1.239a.936.936 0 1 0 .72-1.731zM11.818 26.063a.938.938 0 0 0-1.226.506l-1.239 2.98a.937.937 0 1 0 1.731.719l1.239-2.98a.937.937 0 0 0-.506-1.225zM1.731 11.085l2.98 1.239a.938.938 0 0 0 .719-1.732L2.449 9.353a.938.938 0 0 0-.72 1.732zM26.073 11.841a.937.937 0 0 0 1.224.509l2.983-1.232a.938.938 0 0 0-.715-1.733l-2.984 1.232a.938.938 0 0 0-.509 1.224zM21.383 26.582a.938.938 0 0 0-1.733.715l1.232 2.983a.937.937 0 1 0 1.733-.715l-1.232-2.983zM5.927 20.159a.938.938 0 0 0-1.224-.509L1.72 20.882a.938.938 0 0 0 .715 1.733l2.983-1.232a.938.938 0 0 0 .509-1.224zM10.617 5.419a.937.937 0 1 0 1.733-.715l-1.232-2.983a.938.938 0 0 0-1.733.715l1.232 2.983z"/><path fill="#ff6b09" style="fill:var(--color1,#ff6b09)" d="M16.937 24.637c4.351-.469 7.75-4.163 7.75-8.637 0-4.79-3.897-8.688-8.688-8.688S7.311 11.209 7.311 16c0 4.473 3.399 8.168 7.75 8.637v6.426a.937.937 0 0 0 1.875 0v-6.426zM9.188 16c0-3.756 3.056-6.813 6.813-6.813s6.812 3.056 6.812 6.813c0 3.438-2.561 6.289-5.875 6.748V19.17l.212.212a.938.938 0 0 0 1.326-1.326l-1.817-1.817a.937.937 0 0 0-1.316-.009l-1.875 1.821a.938.938 0 0 0 1.306 1.345l.289-.281v3.633c-3.314-.458-5.875-3.31-5.875-6.748z"/></symbol><symbol id="sunset" viewBox="0 0 32 32"><path fill="#ff6b09" style="fill:var(--color1,#ff6b09)" d="M16 5.103c.518 0 .937-.42.937-.938V.937a.938.938 0 1 0-1.875 0v3.228c0 .518.42.938.938.938zM31.063 15.063h-3.228a.937.937 0 0 0 0 1.875h3.228a.937.937 0 1 0 0-1.875zM5.103 16a.938.938 0 0 0-.938-.938H.937a.938.938 0 0 0 0 1.875h3.228c.518 0 .938-.42.938-.937zM24.368 8.569c.24 0 .48-.092.663-.275l2.282-2.282a.938.938 0 0 0-1.326-1.326l-2.282 2.282a.938.938 0 0 0 .663 1.601zM25.031 23.705a.938.938 0 0 0-1.326 1.326l2.282 2.282a.935.935 0 0 0 1.326 0 .938.938 0 0 0 0-1.326l-2.282-2.282zM6.969 23.705l-2.282 2.282a.938.938 0 0 0 1.326 1.326l2.282-2.282a.938.938 0 0 0-1.326-1.326zM6.969 8.294a.935.935 0 0 0 1.326 0 .938.938 0 0 0 0-1.326L6.013 4.686a.938.938 0 0 0-1.326 1.326l2.282 2.282zM20.182 5.937a.936.936 0 0 0 1.226-.506l1.239-2.981a.938.938 0 0 0-1.731-.72l-1.239 2.981a.937.937 0 0 0 .506 1.225zM30.269 20.915l-2.98-1.239a.938.938 0 0 0-.72 1.731l2.981 1.239a.937.937 0 1 0 .719-1.732zM11.818 26.063a.938.938 0 0 0-1.226.506l-1.239 2.98a.938.938 0 0 0 1.731.72l1.239-2.98a.937.937 0 0 0-.506-1.225zM1.731 11.085l2.981 1.239a.938.938 0 0 0 .719-1.732L2.45 9.353a.938.938 0 0 0-.72 1.732zM26.073 11.841a.937.937 0 0 0 1.224.509l2.983-1.232a.938.938 0 0 0-.715-1.733l-2.983 1.232a.938.938 0 0 0-.509 1.224zM21.383 26.582a.938.938 0 0 0-1.733.715l1.232 2.984a.937.937 0 1 0 1.733-.715l-1.232-2.983zM5.927 20.158a.938.938 0 0 0-1.224-.509L1.72 20.881a.938.938 0 0 0 .715 1.733l2.983-1.232a.938.938 0 0 0 .509-1.224zM10.617 5.419a.937.937 0 1 0 1.733-.715l-1.232-2.983a.938.938 0 0 0-1.733.715l1.232 2.983z"/><path fill="#ff6b09" style="fill:var(--color1,#ff6b09)" d="m17.15 28.582-.212.212v-4.158c4.351-.469 7.75-4.163 7.75-8.637 0-4.79-3.897-8.688-8.688-8.688s-8.688 3.897-8.688 8.688c0 4.473 3.399 8.168 7.75 8.637v4.213l-.289-.281a.938.938 0 0 0-1.307 1.345l1.875 1.822a.934.934 0 0 0 1.316-.01l1.817-1.817a.938.938 0 0 0-1.326-1.326zM9.188 16c0-3.756 3.056-6.812 6.813-6.812s6.812 3.056 6.812 6.812c0 3.438-2.561 6.289-5.875 6.748v-2.225a.937.937 0 1 0-1.875 0v2.225C11.749 22.29 9.188 19.439 9.188 16z"/></symbol><symbol id="line1" viewBox="0 0 3 32"><path fill="none" opacity=".4" stroke="#fff" style="stroke:var(--color1,#fff)" stroke-width="1.454" d="M1.455 0v32"/></symbol><symbol id="cloudy" viewBox="0 0 35 35"><path fill="#eee1dc" style="fill:var(--color1,#eee1dc)" d="M26.888 20.96c-3.317 0-11.015-2.423-14.428-5.445-1.259-1.114-1.897-2.262-1.897-3.411a4.63 4.63 0 0 1 5.908-4.444 4.62 4.62 0 0 1 4.374-3.114c1.671 0 3.199.909 4.013 2.325a4.63 4.63 0 0 1 4.933 5.494 4.653 4.653 0 0 1 2.21 3.944 4.37 4.37 0 0 1-1.377 3.194c-.81.77-1.923 1.276-3.134 1.424-.179.022-.38.033-.601.033z"/><path fill="#e0d2cd" style="fill:var(--color2,#e0d2cd)" d="M29.79 12.366a4.63 4.63 0 0 0-4.933-5.494 4.647 4.647 0 0 0-3.576-2.304v15.323c2.204.673 4.264 1.07 5.607 1.07.22 0 .421-.011.601-.033 1.211-.148 2.324-.654 3.134-1.424A4.373 4.373 0 0 0 32 16.31a4.654 4.654 0 0 0-2.21-3.944z"/><path fill="#fff4f4" style="fill:var(--color3,#fff4f4)" d="M13.321 27.454a4.7 4.7 0 0 1-4.017-2.272 3.927 3.927 0 0 1-2.042.576 3.933 3.933 0 0 1-3.746-2.77 3.919 3.919 0 0 1 .011-7.795A3.907 3.907 0 0 1 4.6 13.505a3.903 3.903 0 0 1 2.662-1.043c.72 0 1.421.202 2.026.567a4.697 4.697 0 0 1 4.033-2.3 4.697 4.697 0 0 1 4.033 2.3 3.91 3.91 0 0 1 4.688.476 3.91 3.91 0 0 1 1.073 1.689 3.918 3.918 0 0 1 .011 7.795 3.932 3.932 0 0 1-3.746 2.77 3.93 3.93 0 0 1-2.042-.576 4.7 4.7 0 0 1-4.017 2.272z"/><path fill="#f6efea" style="fill:var(--color4,#f6efea)" d="M25.317 16.155a3.922 3.922 0 0 0-2.203-.961 3.91 3.91 0 0 0-1.073-1.689 3.903 3.903 0 0 0-2.662-1.043c-.72 0-1.421.202-2.026.567a4.697 4.697 0 0 0-4.033-2.3v16.725a4.7 4.7 0 0 0 4.017-2.272 3.927 3.927 0 0 0 2.042.576 3.933 3.933 0 0 0 3.746-2.77 3.92 3.92 0 0 0 2.192-6.834z"/></symbol><symbol id="quote" viewBox="0 0 35 32"><defs><filter id="glow"><feGaussianBlur in="SourceAlpha" stdDeviation="2"/><feOffset result="offsetblur"/><feComponentTransfer><feFuncA type="linear" slope=".3"/></feComponentTransfer><feMerge><feMergeNode/><feMergeNode in="SourceGraphic"/></feMerge></filter></defs><path fill="#fff" style="fill:var(--color1,#fff);filter:url(#glow)" opacity=".2" d="M21.593 13.843V0h12.784v10.929c0 5.917-.706 10.2-2.12 12.85-1.855 3.533-4.791 6.204-8.809 8.015l-2.914-4.637c2.429-1.016 4.217-2.539 5.365-4.57 1.148-1.987 1.788-4.901 1.921-8.743h-6.226zm-20.533 0V0h12.784v10.929c0 5.917-.707 10.2-2.12 12.85-1.855 3.533-4.791 6.204-8.809 8.015L.001 27.157c2.429-1.016 4.217-2.539 5.365-4.57 1.148-1.987 1.788-4.901 1.921-8.743H1.061z"/></symbol><symbol id="location" viewBox="0 0 32 32"><path fill="none" stroke="#aeb3b9" style="stroke:var(--color1,#aeb3b9)" stroke-width="2.909" d="M27.636 16c0 6.427-5.21 11.636-11.636 11.636S4.364 22.426 4.364 16C4.364 9.573 9.574 4.364 16 4.364S27.636 9.574 27.636 16z"/><path fill="#aeb3b9" style="fill:var(--color1,#aeb3b9)" d="M14.545 0h2.909v5.818h-2.909V0zM14.545 26.182h2.909V32h-2.909v-5.818zM5.818 14.545v2.909H0v-2.909h5.818zM32 14.545v2.909h-5.818v-2.909H32z"/></symbol><symbol id="star" viewBox="0 0 35 32"><path fill="none" stroke="#7e8691" style="stroke:var(--color1,#7e8691)" stroke-width="1.6" d="m17.6 2.589 3.37 10.372h10.906l-8.823 6.411.18.553 3.191 9.82-8.823-6.411-8.823 6.411 3.37-10.372-8.823-6.411h10.906l3.37-10.372z"/></symbol><symbol id="cloudy-and-sun" xmlns="http://www.w3.org/2000/svg" viewBox="0 0 35 35" fill="none"><g clip-path="url('#clip0_104_2')"><path d="M21.02 23.193c-4.208 0-7.65-3.403-7.69-7.62-.039-4.24 3.38-7.722 7.62-7.761h.072c4.208 0 7.65 3.403 7.689 7.62.039 4.24-3.38 7.722-7.62 7.76h-.071Z" fill="#FDBF00"/><path d="M21.022 7.812h-.002v15.38h.071c4.24-.038 7.659-3.52 7.62-7.76-.039-4.217-3.481-7.62-7.69-7.62Z" fill="#FF8856"/><path d="M21.05 6.35c-.561 0-1.02-.453-1.025-1.016L20 2.56a1.025 1.025 0 0 1 1.016-1.035h.01c.561 0 1.02.453 1.025 1.016l.025 2.776c.005.566-.45 1.03-1.016 1.034h-.01Z" fill="#FDBF00"/><path d="M31.199 16.435a1.025 1.025 0 0 1-.01-2.051l2.776-.026h.01a1.025 1.025 0 0 1 .01 2.051l-2.777.026h-.01ZM28.275 9.265a1.025 1.025 0 0 1-.732-1.744l1.945-1.98a1.025 1.025 0 0 1 1.463 1.436l-1.945 1.98c-.2.205-.466.308-.731.308Z" fill="#FF8856"/><path d="M13.881 9.397c-.259 0-.518-.098-.718-.294l-1.98-1.944a1.025 1.025 0 0 1 1.436-1.464l1.98 1.945a1.025 1.025 0 0 1-.718 1.757Z" fill="#FDBF00"/><path d="M24.963 7.094a1.025 1.025 0 0 1-.95-1.41l1.042-2.573a1.025 1.025 0 0 1 1.9.77l-1.04 2.572c-.162.399-.546.641-.951.641ZM33.151 21.39c-.128 0-.258-.024-.384-.075l-2.573-1.042a1.025 1.025 0 1 1 .77-1.9l2.572 1.04a1.025 1.025 0 0 1-.385 1.977Z" fill="#FF8856"/><path d="M11.71 12.709c-.129 0-.26-.024-.385-.075l-2.573-1.042a1.025 1.025 0 0 1 .77-1.901l2.572 1.042a1.026 1.026 0 0 1-.385 1.976Z" fill="#FDBF00"/><path d="M30.517 12.558a1.025 1.025 0 0 1-.4-1.97l2.555-1.083a1.025 1.025 0 1 1 .8 1.889l-2.556 1.082c-.13.056-.266.082-.4.082Z" fill="#FF8856"/><path d="M17.174 7.156c-.4 0-.779-.234-.944-.625l-1.083-2.556a1.025 1.025 0 0 1 1.888-.8l1.083 2.556a1.025 1.025 0 0 1-.944 1.425Z" fill="#FDBF00"/><path d="M15.244 33.476a5.346 5.346 0 0 1-3.347-1.181 5.361 5.361 0 0 1-1.248-1.447c-.7.438-1.519.681-2.362.681a4.464 4.464 0 0 1-4.262-3.177A4.448 4.448 0 0 1 0 23.925a4.453 4.453 0 0 1 4.038-4.428 4.44 4.44 0 0 1 1.228-1.949 4.433 4.433 0 0 1 3.021-1.184c.836 0 1.647.239 2.344.67a5.358 5.358 0 0 1 1.25-1.466 5.344 5.344 0 0 1 3.363-1.194c1.222 0 2.416.425 3.363 1.194.504.41.927.91 1.25 1.466a4.457 4.457 0 0 1 2.344-.67c1.124 0 2.197.42 3.022 1.184.58.537 1 1.209 1.228 1.95a4.448 4.448 0 0 1 .012 8.855 4.464 4.464 0 0 1-4.262 3.176 4.455 4.455 0 0 1-2.362-.681 5.357 5.357 0 0 1-1.248 1.447 5.345 5.345 0 0 1-3.347 1.181Z" fill="#FFF4F4"/><path d="M28.984 20.592a4.453 4.453 0 0 0-2.533-1.095 4.44 4.44 0 0 0-1.228-1.949 4.433 4.433 0 0 0-3.022-1.184c-.835 0-1.647.239-2.344.67a5.36 5.36 0 0 0-1.25-1.466 5.344 5.344 0 0 0-3.363-1.194v19.102c1.215 0 2.404-.42 3.347-1.181a5.36 5.36 0 0 0 1.248-1.447c.7.438 1.519.681 2.362.681a4.464 4.464 0 0 0 4.262-3.177 4.448 4.448 0 0 0 2.521-7.76Z" fill="#F6EFEA"/><path d="M22.05 2.54a1.025 1.025 0 0 0-1.025-1.016h-.005v4.825l.03.001h.01a1.025 1.025 0 0 0 1.016-1.035L22.05 2.54Z" fill="#FF8856"/></g><defs><clipPath id="clip0_104_2"><path fill="#fff" d="M0 0h35v35H0z"/></clipPath></defs></symbol><symbol id="sun" xmlns="http://www.w3.org/2000/svg" viewBox="0 0 35 35" fill="none"><g clip-path="url('#clip0_104_56')"><path d="M17.5 27.002c-5.24 0-9.502-4.263-9.502-9.502 0-5.24 4.263-9.502 9.502-9.502 5.24 0 9.502 4.263 9.502 9.502 0 5.24-4.263 9.502-9.502 9.502ZM17.5 5.581c-.566 0-1.025-.459-1.025-1.025v-3.53a1.025 1.025 0 0 1 2.05 0v3.53c0 .566-.459 1.025-1.025 1.025Z" fill="#FDBF00"/><path d="M33.975 18.525h-3.53a1.025 1.025 0 0 1 0-2.05h3.53a1.025 1.025 0 0 1 0 2.05Z" fill="#FF8856"/><path d="M17.5 35c-.566 0-1.025-.46-1.025-1.025v-3.53a1.025 1.025 0 0 1 2.05 0v3.53c0 .566-.459 1.025-1.025 1.025ZM4.556 18.525h-3.53a1.025 1.025 0 0 1 0-2.05h3.53a1.025 1.025 0 0 1 0 2.05Z" fill="#FDBF00"/><path d="M26.653 9.373a1.025 1.025 0 0 1-.725-1.75l2.496-2.497a1.025 1.025 0 0 1 1.45 1.45l-2.496 2.496c-.2.2-.462.3-.725.3ZM29.15 30.175c-.263 0-.525-.1-.726-.3l-2.496-2.497a1.025 1.025 0 1 1 1.45-1.45l2.496 2.496a1.025 1.025 0 0 1-.725 1.75Z" fill="#FF8856"/><path d="M5.85 30.175a1.025 1.025 0 0 1-.725-1.75l2.497-2.497a1.025 1.025 0 0 1 1.45 1.45l-2.496 2.496c-.2.2-.463.3-.725.3ZM8.347 9.373c-.263 0-.525-.1-.725-.3L5.126 6.575a1.025 1.025 0 1 1 1.45-1.45l2.496 2.496a1.025 1.025 0 0 1-.725 1.75Z" fill="#FDBF00"/><path d="M22.467 6.573a1.025 1.025 0 0 1-.946-1.42l1.354-3.26a1.026 1.026 0 0 1 1.894.788l-1.354 3.26a1.026 1.026 0 0 1-.948.632ZM32.713 24.848c-.131 0-.265-.025-.393-.079l-3.26-1.354a1.026 1.026 0 0 1 .787-1.894l3.26 1.355a1.026 1.026 0 0 1-.394 1.972Z" fill="#FF8856"/><path d="M11.177 33.739a1.025 1.025 0 0 1-.947-1.42l1.355-3.26a1.025 1.025 0 0 1 1.894.788l-1.354 3.26a1.026 1.026 0 0 1-.948.632ZM5.546 13.558c-.13 0-.264-.025-.393-.079l-3.26-1.354a1.026 1.026 0 0 1 .787-1.894l3.26 1.355a1.026 1.026 0 0 1-.394 1.972Z" fill="#FDBF00"/><path d="M29.465 13.586a1.026 1.026 0 0 1-.391-1.974l3.263-1.347a1.025 1.025 0 0 1 .782 1.896l-3.263 1.347c-.128.053-.26.078-.39.078ZM23.787 33.754c-.403 0-.785-.24-.948-.635l-1.347-3.263a1.025 1.025 0 1 1 1.895-.782l1.348 3.263a1.025 1.025 0 0 1-.948 1.417Z" fill="#FF8856"/><path d="M2.272 24.812a1.026 1.026 0 0 1-.391-1.973l3.263-1.347a1.025 1.025 0 1 1 .782 1.895l-3.263 1.348c-.128.052-.26.077-.39.077ZM12.56 6.561c-.402 0-.784-.239-.947-.634l-1.348-3.263a1.025 1.025 0 1 1 1.896-.783l1.347 3.263a1.025 1.025 0 0 1-.947 1.417Z" fill="#FDBF00"/><path d="M17.5 0v5.581c.566 0 1.025-.459 1.025-1.025v-3.53C18.525.458 18.066 0 17.5 0ZM17.5 7.998v19.004c5.24 0 9.502-4.263 9.502-9.502 0-5.24-4.263-9.502-9.502-9.502ZM17.5 29.419V35c.566 0 1.025-.46 1.025-1.025v-3.53c0-.567-.459-1.026-1.025-1.026Z" fill="#FF8856"/></g><defs><clipPath id="clip0_104_56"><path fill="#fff" d="M0 0h35v35H0z"/></clipPath></defs></symbol><symbol id="barometer" xmlns="http://www.w3.org/2000/svg" viewBox="0 0 20 20" fill="none"><path d="M11.556 2.575A1.76 1.76 0 0 0 10 0a1.76 1.76 0 0 0-1.555 2.575c-4.103.737-7.226 4.332-7.226 8.644C1.219 16.06 5.158 20 10 20c4.842 0 8.781-3.94 8.781-8.781 0-4.312-3.123-7.907-7.225-8.644ZM10 1.172a.587.587 0 1 1-.001 1.173A.587.587 0 0 1 10 1.172Zm0 17.656c-4.196 0-7.61-3.413-7.61-7.61C2.39 7.024 5.805 3.61 10 3.61s7.61 3.414 7.61 7.61-3.414 7.61-7.61 7.61Z" fill="#fff" fill-opacity=".54"/><path d="m14.583 6.681-.026-.028-.029-.026A6.432 6.432 0 0 0 10 4.766c-1.77 0-3.375.716-4.542 1.874l-.015.013-.012.013a6.433 6.433 0 0 0-1.884 4.553c0 .323.262.586.586.586h.664a.586.586 0 1 0 0-1.172h-.045A5.256 5.256 0 0 1 5.88 7.919l.032.033a.584.584 0 0 0 .829 0 .586.586 0 0 0 0-.829l-.032-.032a5.256 5.256 0 0 1 2.705-1.12v.045a.586.586 0 1 0 1.172 0V5.97a5.256 5.256 0 0 1 2.704 1.122l-.03.031a.586.586 0 0 0 .828.829l.032-.032a5.257 5.257 0 0 1 1.128 2.705h-.053a.586.586 0 1 0 0 1.172h.673a.586.586 0 0 0 .585-.587 6.432 6.432 0 0 0-1.87-4.529Z" fill="#fff" fill-opacity=".54"/><path d="M12.657 8.562a.586.586 0 0 0-.829 0l-2.446 2.446c-.271-.13-.574-.189-.88-.167a.586.586 0 1 0 .082 1.169.585.585 0 0 1 .625.618.586.586 0 0 0 1.17.068 1.76 1.76 0 0 0-.169-.859l2.447-2.447a.586.586 0 0 0 0-.828ZM13.36 15.43H6.64a.586.586 0 1 0 0 1.172h6.72a.586.586 0 0 0 0-1.172Z" fill="#fff" fill-opacity=".54"/></symbol><symbol id="humidity" xmlns="http://www.w3.org/2000/svg" viewBox="0 0 20 20" fill="none"><g clip-path="url('#clip0_103_566')" fill-rule="evenodd" clip-rule="evenodd" fill="#fff" fill-opacity=".54"><path d="M17.888 5.874a16.96 16.96 0 0 0-1.123-1.699c-.517-.674-.823-.913-1.168-.913-.326 0-.592.229-.89.572-.22.253-.482.604-.758 1.015-.396.589-.775 1.23-1.1 1.853a39.718 39.718 0 0 0-.912-1.652c-.752-1.286-1.554-2.5-2.258-3.418C8.524.126 8.089 0 7.773 0c-.316 0-.75.126-1.905 1.632-.704.918-1.506 2.132-2.258 3.418-.903 1.546-3.005 5.4-3.005 7.782C.605 16.785 3.821 20 7.773 20c3.709 0 6.768-2.83 7.132-6.445a3.801 3.801 0 0 0 4.49-3.733c0-1.191-.945-2.985-1.507-3.948ZM7.773 18.828a6.003 6.003 0 0 1-5.996-5.996c0-1.396 1-3.974 2.675-6.896 1.494-2.608 2.827-4.286 3.321-4.7.495.414 1.827 2.091 3.322 4.7 1.675 2.922 2.675 5.5 2.675 6.896a6.003 6.003 0 0 1-5.997 5.996Zm7.825-6.381c-.232 0-.46-.03-.682-.09-.129-1.29-.74-2.896-1.41-4.328.652-1.455 1.619-2.888 2.091-3.436.298.344.826 1.068 1.414 2.107.759 1.342 1.212 2.509 1.212 3.122a2.628 2.628 0 0 1-2.625 2.625Z"/><path d="M9.382 10.045a.586.586 0 0 0-.8.215L5.95 14.818a.586.586 0 1 0 1.015.586l2.632-4.558a.586.586 0 0 0-.215-.8ZM6.309 11.21a.587.587 0 0 0-1.172 0 .587.587 0 0 0 1.172 0ZM9.629 13.945a.587.587 0 0 0 0 1.172.587.587 0 0 0 0-1.172Z"/></g><defs><clipPath id="clip0_103_566"><path fill="#fff" d="M0 0h20v20H0z"/></clipPath></defs></symbol><symbol id="wind" xmlns="http://www.w3.org/2000/svg" viewBox="0 0 20 20" fill="none"><path d="M15.822 1.652c-.947 0-1.876.327-2.615.92a.586.586 0 0 0 .734.914 3.016 3.016 0 0 1 1.881-.662 3.01 3.01 0 0 1 3.006 3.006 3.01 3.01 0 0 1-3.006 3.006H4.805a.586.586 0 0 0 0 1.171h11.017A4.182 4.182 0 0 0 20 5.83a4.182 4.182 0 0 0-4.178-4.178Z" fill="#fff" fill-opacity=".54"/><path d="M3.682 7.668h6.26a.586.586 0 0 0 0-1.172h-6.26a.586.586 0 0 0 0 1.172ZM9.777 11.183H.586a.586.586 0 0 0 0 1.172h9.191a2.413 2.413 0 0 1 2.41 2.41 2.413 2.413 0 0 1-3.919 1.88.586.586 0 0 0-.733.914c.633.509 1.43.789 2.242.789a3.586 3.586 0 0 0 3.583-3.582 3.586 3.586 0 0 0-3.583-3.583ZM.586 7.668h.79a.586.586 0 0 0 0-1.172h-.79a.586.586 0 0 0 0 1.172Z" fill="#fff" fill-opacity=".54"/><path d="M7.656 14.102a.586.586 0 0 0-.586-.586H3.555a.586.586 0 0 0 0 1.171H7.07a.586.586 0 0 0 .586-.585Z" fill="#fff" fill-opacity=".54"/></symbol><symbol id="arrow-down" xmlns="http://www.w3.org/2000/svg" viewBox="0 0 28 28" fill="none"><circle cx="14" cy="14" r="14" fill="#fff" fill-opacity=".2"/><path d="m10 12 4 4 4-4" stroke="#fff" stroke-width="1.5"/></symbol><symbol id="arrow-up" xmlns="http://www.w3.org/2000/svg" viewBox="0 0 28 28" fill="none"><circle cx="14" cy="14" r="14" fill="#fff" fill-opacity=".2"/><path d="m10 16 4-4 4 4" stroke="#fff" stroke-width="1.5"/></symbol></defs></svg>