<svg width="64" height="64" viewBox="0 0 64 64" fill="none" xmlns="http://www.w3.org/2000/svg">
<g id="Professional" clip-path="url(#clip0_2067_187)">
<g id="SVGRepo_iconCarrier">
<path id="Vector" d="M45.7701 33.4068C45.2474 33.1755 44.7149 32.9488 44.1776 32.7232L40.4907 31.4527L40.3462 31.4026C40.2926 31.1638 40.1836 30.9409 40.028 30.752C39.5905 30.2455 39.0392 29.5126 38.5922 29.0125C38.4022 29.1662 34.5288 32.2203 34.235 32.4285H33.5526C33.2588 32.2203 29.3856 29.1662 29.1954 29.0125C28.7484 29.5126 28.1971 30.2455 27.7596 30.752C27.6082 30.9355 27.501 31.1514 27.4461 31.3829L27.1752 31.4797C27.1752 31.4797 24.1175 32.5726 23.7326 32.727C20.1713 34.1558 16.999 35.7396 15.3083 38.3108C14.5867 39.4099 13.9952 40.9703 13.5625 42.4269L9.30853 44.8906C9.43728 47.4537 9.57983 49.3944 9.762 51.6503C9.87793 53.0767 10.0006 54.5042 10.1924 55.9227C10.3094 57.046 10.5451 58.1536 10.8957 59.2272C11.4674 60.972 12.7411 62.6702 14.5893 63.1838C16.4532 63.7019 19.0451 63.4324 20.3594 61.6169C20.3667 62.2798 20.3742 62.9194 20.3811 63.5276H56.6319C55.9278 53.9225 55.8432 52.0201 55.3276 47.1757C54.9988 44.0748 53.9791 40.1043 52.8004 38.3121C51.3939 36.172 48.7409 34.7201 45.7701 33.4068Z" fill="white"/>
<path id="Vector_2" d="M29.1966 29.0129C28.7496 29.5131 28.1983 30.246 27.7608 30.7525C27.5033 31.0508 27.3139 31.5985 27.4604 31.9934C27.6285 32.3286 29.4864 35.3081 30.7376 36.1095C31.1329 35.5829 32.7703 33.3099 33.5536 32.4289C33.2599 32.2207 29.3866 29.1667 29.1966 29.0129Z" fill="white"/>
<path id="Vector_3" d="M38.5931 29.0129C39.04 29.5131 39.5913 30.246 40.0288 30.7525C40.2863 31.0508 40.4757 31.5985 40.3292 31.9934C40.1611 32.3286 38.3032 35.3081 37.052 36.1095C36.6577 35.5829 35.0193 33.3099 34.236 32.4289C34.5296 32.2207 38.403 29.1667 38.5931 29.0129Z" fill="white"/>
<path id="Vector_4" d="M43.4939 16.0933C43.6395 15.9588 43.8102 15.8544 43.9963 15.7863C44.1825 15.7181 44.3802 15.6875 44.5782 15.6962C44.8301 15.688 45.0795 15.7483 45.2998 15.8707C45.52 15.9931 45.703 16.173 45.829 16.3912C46.2541 17.1282 46.2362 18.4866 45.9509 19.3269C45.7488 19.9221 45.4185 20.8326 44.6199 21.4854C44.4443 21.6316 44.2403 21.7398 44.0208 21.8031C43.8013 21.8665 43.5711 21.8836 43.3446 21.8535L43.2222 21.8338C43.102 22.24 42.9554 22.6379 42.7833 23.025C42.4678 23.8799 40.7681 26.8174 38.5926 28.0877V29.0144C38.4026 29.1682 34.5292 32.2222 34.2354 32.4304H33.553C33.2592 32.2222 29.386 29.1682 29.1958 29.0144C29.1958 29.0144 29.1958 28.5633 29.1958 28.0728C28.244 27.5118 27.4029 26.7814 26.7139 25.9178C25.721 24.7181 24.9841 23.3279 24.5487 21.8328C24.3075 21.8837 24.0578 21.879 23.8187 21.819C23.5796 21.7591 23.3572 21.6454 23.1685 21.4868C22.3706 20.834 22.0396 19.9235 21.8375 19.3283C21.5522 18.488 21.5343 17.1295 21.9594 16.3925C22.0854 16.1743 22.2683 15.9945 22.4886 15.8721C22.7089 15.7497 22.9583 15.6893 23.2101 15.6976C23.4082 15.6889 23.6059 15.7195 23.7921 15.7877C23.9782 15.8558 24.1489 15.9601 24.2945 16.0946C24.2945 16.0946 23.1772 7.19263 33.8935 7.19263C44.585 7.19125 43.4939 16.0933 43.4939 16.0933Z" fill="white"/>
<path id="Vector_5" d="M31.3131 56.1119C30.9961 55.7861 30.7008 55.4399 30.429 55.0756C30.9036 50.7365 32.3626 37.3861 32.358 37.172C32.3314 36.7612 32.2467 36.3563 32.1065 35.9693C32.0315 35.729 31.8616 35.2284 31.7244 34.772C32.347 33.933 33.096 32.9433 33.5536 32.4287H34.236C34.719 32.9719 35.5266 34.0454 36.1682 34.9104C36.0574 35.3142 35.9493 35.7597 35.8852 35.9693C35.7444 36.3563 35.659 36.7612 35.6315 37.172C35.6293 37.384 37.055 50.4739 37.5471 54.9321C37.5471 54.9321 35.0842 57.7747 33.9872 58.6178C33.0397 57.8445 32.1462 57.0072 31.3131 56.1119Z" fill="#EE8725"/>
<path id="Vector_6" d="M35.483 36.2104C34.4736 36.2104 33.4641 36.2315 32.4546 36.2319C32.3291 36.2319 32.2088 36.2818 32.12 36.3705C32.0313 36.4593 31.9814 36.5796 31.9814 36.7051C31.9814 36.8306 32.0313 36.951 32.12 37.0397C32.2088 37.1285 32.3291 37.1783 32.4546 37.1783C33.4641 37.1783 34.4736 37.1572 35.483 37.1568C35.6085 37.1568 35.7289 37.107 35.8176 37.0182C35.9064 36.9295 35.9562 36.8091 35.9562 36.6836C35.9562 36.5581 35.9064 36.4378 35.8176 36.349C35.7289 36.2603 35.6085 36.2104 35.483 36.2104Z" fill="#211715"/>
<path id="Vector_7" d="M31.2683 34.8975C31.4655 35.5503 31.7415 36.2031 31.8574 36.8768C31.8829 37.0245 31.888 37.175 31.8726 37.324C31.8385 37.6939 31.7985 38.0632 31.7596 38.4326C31.5998 39.9584 31.4365 41.484 31.2697 43.0093C31.057 44.9794 30.8432 46.9493 30.6281 48.919C30.4404 50.6409 30.2525 52.3632 30.0642 54.0858C30.0305 54.3932 29.981 54.7035 29.9629 55.0125C29.9475 55.2775 30.1141 55.4502 30.2699 55.6448C30.4047 55.8132 30.5471 55.9756 30.6914 56.1359C31.4426 56.9695 32.2442 57.7563 33.0917 58.4918C33.2746 58.6495 33.4607 58.8053 33.6522 58.9535C33.7435 59.0372 33.8629 59.0836 33.9868 59.0836C34.1106 59.0836 34.23 59.0372 34.3213 58.9535C35.0436 58.3531 35.7166 57.6958 36.3338 56.9878C36.845 56.4384 37.3566 55.8851 37.8424 55.312C38.079 55.0328 37.9978 54.7319 37.9607 54.3974C37.9203 54.0293 37.8799 53.6619 37.8397 53.295C37.7419 52.4049 37.6444 51.5147 37.5471 50.6243C37.3217 48.56 37.0971 46.4957 36.8734 44.4315C36.6828 42.6702 36.4935 40.9092 36.3056 39.1487C36.2512 38.6361 36.1965 38.1223 36.1447 37.6089C36.1323 37.4865 36.1165 37.3638 36.109 37.241C36.084 36.8325 36.2425 36.4326 36.3553 36.0472C36.4538 35.712 36.5327 35.3725 36.6234 35.0361C36.7829 34.4476 35.8702 34.1964 35.7109 34.7846C35.5581 35.3485 35.374 35.9153 35.248 36.4853C35.1848 36.732 35.1561 36.9864 35.1626 37.241C35.1774 37.4798 35.2094 37.7185 35.2338 37.9563C35.3454 39.0341 35.4598 40.1115 35.5771 41.1884C35.9159 44.3429 36.2582 47.4975 36.6039 50.6521C36.7596 52.0791 36.9161 53.5061 37.0733 54.933L37.2113 54.5979C36.7638 55.1143 36.3076 55.6232 35.8428 56.1247C35.1528 56.8719 34.4574 57.6582 33.6514 58.2836H34.3206C33.6213 57.726 32.9577 57.1252 32.3336 56.4847C32.0213 56.1732 31.7143 55.8559 31.4176 55.5296C31.2931 55.3928 31.1705 55.2536 31.0516 55.1128C31.0045 55.0565 30.958 54.9999 30.9124 54.9423C30.9753 55.0212 30.8551 54.8634 30.8369 54.8372L30.9014 55.076C31.2153 52.2068 31.5282 49.3374 31.8403 46.4679C32.14 43.7106 32.4426 40.9537 32.7301 38.1951C32.762 37.8873 32.8008 37.5791 32.8231 37.2704C32.8333 37.0219 32.809 36.7732 32.751 36.5314C32.6179 35.8906 32.3691 35.2712 32.1802 34.6454C32.0045 34.0639 31.0909 34.3118 31.2675 34.897L31.2683 34.8975Z" fill="#211715"/>
<path id="Vector_8" d="M28.8619 28.6784C28.5749 29.0022 28.3052 29.3409 28.0339 29.6782C27.7776 29.9972 27.48 30.3024 27.2545 30.6443C27.073 30.9001 26.9673 31.202 26.9496 31.5151C26.9318 31.8283 27.0028 32.1402 27.1543 32.4148C27.7251 33.3752 28.3689 34.2902 29.08 35.1518C29.4814 35.6761 29.9595 36.1369 30.4982 36.5187C30.6073 36.5789 30.7354 36.5949 30.8559 36.5632C30.9764 36.5315 31.0801 36.4547 31.1455 36.3486C32.0457 35.1459 32.8919 33.8898 33.8876 32.7636C33.9372 32.7116 33.9745 32.6492 33.9969 32.581C34.0192 32.5127 34.0261 32.4403 34.0169 32.3691C34.0077 32.2979 33.9827 32.2296 33.9438 32.1692C33.9048 32.1089 33.8529 32.058 33.7918 32.0203C33.7316 31.9773 33.6735 31.9318 33.6143 31.8866L33.5463 31.8344C33.4871 31.7894 33.6271 31.8971 33.5416 31.8306L33.3444 31.6784C33.0009 31.4111 32.6582 31.143 32.3162 30.8742C31.5784 30.2959 30.8416 29.7161 30.1058 29.1348C29.9136 28.9828 29.7202 28.8322 29.5293 28.6784C29.4388 28.5931 29.3192 28.5455 29.1948 28.5455C29.0704 28.5455 28.9507 28.5931 28.8602 28.6784C28.7723 28.7676 28.723 28.8878 28.723 29.013C28.723 29.1382 28.7723 29.2584 28.8602 29.3476C30.095 30.3438 31.3509 31.3158 32.6025 32.2908C32.8379 32.4742 33.0702 32.6638 33.3123 32.8375L33.2164 32.0944C32.1675 33.2807 31.2746 34.6049 30.3263 35.8709L30.9737 35.7011C30.9315 35.6735 30.8901 35.6449 30.8491 35.6155C30.8081 35.5862 30.846 35.6155 30.8537 35.6207C30.8286 35.6009 30.804 35.5812 30.7797 35.5615C30.6814 35.4795 30.5863 35.394 30.4944 35.3052C30.3014 35.1189 30.1198 34.9207 29.9444 34.7175C29.5733 34.2875 29.2322 33.8326 28.9055 33.3681C28.6269 32.972 28.3578 32.569 28.1029 32.1575C28.0339 32.0459 27.9649 31.9337 27.9008 31.8196C27.8911 31.8041 27.8823 31.788 27.8746 31.7715C27.9049 31.8462 27.8773 31.7675 27.8807 31.7285C27.8843 31.5832 27.9136 31.4397 27.9672 31.3046C28.119 30.9617 28.4416 30.6709 28.6743 30.3813C28.9542 30.0331 29.2322 29.683 29.5285 29.3486C29.9339 28.8933 29.2671 28.2216 28.8619 28.6784Z" fill="#211715"/>
<path id="Vector_9" d="M38.2583 29.3477C38.5173 29.6397 38.762 29.9439 39.0075 30.2481C39.2336 30.5297 39.4834 30.8002 39.6975 31.0904C39.7792 31.2025 39.8393 31.3288 39.875 31.4628C39.8938 31.5261 39.9049 31.5915 39.9079 31.6574C39.9079 31.6925 39.8795 31.8601 39.9166 31.7649C39.8714 31.8604 39.8183 31.9519 39.7579 32.0385C39.2345 32.911 38.6475 33.7437 38.0018 34.5299C37.8012 34.7712 37.5934 35.0068 37.3708 35.2282C37.2723 35.3268 37.1703 35.4226 37.0643 35.5135C36.9874 35.5844 36.9036 35.6473 36.8141 35.7012L37.4615 35.8709C36.5132 34.605 35.6203 33.2808 34.5714 32.0945L34.4755 32.8376C35.0262 32.4433 35.5501 32.0074 36.0826 31.5898C36.8352 30.9995 37.5868 30.408 38.3373 29.8153C38.5345 29.6596 38.7328 29.5052 38.9288 29.3475C39.0167 29.2583 39.066 29.1381 39.066 29.0129C39.066 28.8877 39.0167 28.7675 38.9288 28.6783C38.8386 28.5919 38.7185 28.5436 38.5936 28.5436C38.4687 28.5436 38.3486 28.5919 38.2585 28.6783C37.0386 29.6625 35.7977 30.6227 34.5615 31.5864L34.3346 31.7639L34.236 31.8408C34.1743 31.8887 34.3133 31.7816 34.2228 31.8508C34.1482 31.908 34.0743 31.9666 33.998 32.0212C33.9369 32.0589 33.8849 32.1098 33.846 32.1701C33.807 32.2305 33.7821 32.2987 33.7729 32.37C33.7637 32.4412 33.7705 32.5136 33.7929 32.5819C33.8153 32.6501 33.8526 32.7125 33.9022 32.7645C34.8979 33.8907 35.7441 35.1478 36.6443 36.3495C36.7093 36.456 36.8131 36.5332 36.9338 36.5648C37.0546 36.5965 37.1828 36.5801 37.2918 36.5192C38.317 35.8489 39.0779 34.7381 39.7673 33.7487C40.0479 33.3459 40.3194 32.9364 40.5745 32.5168C40.6587 32.3924 40.7297 32.2594 40.7863 32.1202C40.9019 31.7105 40.8597 31.2724 40.668 30.8924C40.4862 30.4845 40.14 30.1551 39.8624 29.8104C39.5558 29.4297 39.2533 29.0452 38.929 28.6793C38.5227 28.2219 37.8553 28.8932 38.2583 29.3477Z" fill="#211715"/>
<path id="Vector_10" d="M57.1051 63.5267C56.8787 60.4378 56.6646 57.3481 56.4347 54.2602C56.2926 52.3493 56.1346 50.44 55.9418 48.5334C55.6273 45.422 55.1394 42.285 53.8953 39.3917C53.3096 38.0414 52.3945 36.8597 51.2336 35.9549C49.8588 34.8603 48.2941 34.0425 46.7027 33.311C45.6425 32.8244 44.5778 32.3623 43.4757 31.9824L40.8103 31.0636L40.6173 30.9971C40.0402 30.7982 39.7924 31.712 40.3657 31.9096C41.9099 32.4419 43.4763 32.9258 44.9765 33.5736C46.5986 34.2742 48.219 35.0208 49.6954 35.9987C50.8951 36.7939 52.0081 37.7795 52.6942 39.0628C53.4237 40.4258 53.8485 41.9628 54.2034 43.4595C54.5469 44.9515 54.7929 46.4643 54.9398 47.9883C55.132 49.8453 55.2975 51.7046 55.4363 53.5661C55.6506 56.3855 55.8442 59.2061 56.0491 62.0259C56.0856 62.5263 56.1221 63.0268 56.1587 63.5273C56.1616 63.6519 56.2124 63.7705 56.3005 63.8586C56.3887 63.9467 56.5073 63.9975 56.6319 64.0005C56.7571 63.9995 56.8769 63.9493 56.9654 63.8608C57.0539 63.7723 57.1041 63.6525 57.1051 63.5273V63.5267Z" fill="#211715"/>
<path id="Vector_11" d="M19.6186 43.5989C19.6736 45.9352 19.7091 48.2716 19.7436 50.6085C19.7854 53.4382 19.8229 56.2679 19.856 59.0977C19.8738 60.5743 19.8911 62.0508 19.9079 63.5271C19.9148 64.1357 20.8611 64.1373 20.8542 63.5271C20.8232 60.8138 20.7904 58.1005 20.7557 55.3873C20.7203 52.6618 20.6804 49.9363 20.636 47.211C20.6154 46.0069 20.5916 44.8029 20.5648 43.5989C20.5506 42.991 19.6044 42.9886 19.6186 43.5989Z" fill="#211715"/>
<path id="Vector_12" d="M47.9436 63.5269C47.963 61.0389 47.9851 58.551 48.0098 56.0632C48.0382 53.1655 48.0711 50.2678 48.1084 47.3702C48.1258 46.1131 48.1463 44.8559 48.1699 43.5987C48.1826 42.9895 47.2362 42.9897 47.2236 43.5987C47.1729 46.0794 47.1447 48.5604 47.1163 51.0415C47.0829 53.9411 47.0538 56.8407 47.029 59.7405C47.0178 61.0023 47.0071 62.2641 46.997 63.5259C46.9923 64.135 47.9387 64.1356 47.9434 63.5259L47.9436 63.5269Z" fill="#211715"/>
<path id="Vector_13" d="M14.0201 42.5531C14.4517 41.108 14.9665 39.6273 15.834 38.3789C16.5887 37.3471 17.5313 36.4669 18.6124 35.7846C20.6128 34.4599 22.8647 33.537 25.1124 32.7235C25.8419 32.4597 26.572 32.1973 27.3026 31.9364C27.4219 31.9004 27.5228 31.8199 27.5843 31.7115C27.6458 31.6032 27.6633 31.4753 27.6331 31.3544C27.5988 31.234 27.5186 31.1318 27.4097 31.07C27.3008 31.0082 27.172 30.9917 27.0511 31.024C25.5154 31.5729 23.9734 32.1046 22.4708 32.7393C19.8616 33.8434 17.1147 35.1841 15.3358 37.4711C14.2399 38.8794 13.6138 40.6074 13.1078 42.3016C12.9332 42.8865 13.8464 43.1363 14.0205 42.5531H14.0201Z" fill="#211715"/>
<path id="Vector_14" d="M8.83538 44.8905C8.93212 46.8096 9.05698 48.7263 9.20998 50.6407C9.37008 52.6778 9.53944 54.7135 9.83261 56.7364C10.0712 58.3807 10.503 60.0881 11.4943 61.4522C11.9775 62.1401 12.5989 62.7196 13.3186 63.1539C14.0247 63.5446 14.8052 63.7818 15.6092 63.8503C17.3557 64.0412 19.2881 63.5699 20.484 62.216C20.8858 61.7612 20.219 61.0893 19.8149 61.5469C18.8624 62.6252 17.4095 63.0033 16.0124 62.9357C15.3211 62.9174 14.6412 62.7546 14.0166 62.4576C13.3723 62.1208 12.8116 61.644 12.3758 61.0621C11.4207 59.8115 11.0107 58.2247 10.7758 56.6938C10.485 54.7983 10.334 52.884 10.182 50.9735C10.0207 48.9476 9.88736 46.92 9.78194 44.8905C9.75138 44.2845 8.80462 44.2807 8.83538 44.8905Z" fill="#211715"/>
<path id="Vector_15" d="M44.2679 6.60338C43.8169 5.87914 43.2605 5.2262 42.6169 4.66608L41.084 3.3035C39.0968 1.08919 36.4554 0.477004 33.8521 0.477004C31.218 0.439855 28.6473 1.28529 26.5495 2.87862C25.7667 3.49332 25.074 4.21472 24.4915 5.02176C23.1571 6.32775 22.0926 9.18067 22.1723 12.0097C22.1632 13.2904 22.32 14.5668 22.6386 15.8072C22.8217 15.7388 23.0149 15.7016 23.2103 15.6972C23.4084 15.6886 23.6061 15.7192 23.7922 15.7873C23.9784 15.8555 24.1491 15.9598 24.2947 16.0943L24.7247 16.3958C24.7562 15.818 24.8188 15.2423 24.9122 14.6712C25.1118 13.4591 26.3698 12.9001 26.9036 11.8179C27.2115 11.1945 27.3947 10.466 27.9215 10.0224C28.3182 9.68836 28.8482 9.57499 29.358 9.52137C30.1488 9.43797 32.8237 9.55725 33.7184 9.72247C34.4753 9.76486 35.2088 9.91608 36.2882 10.0535C36.8736 10.128 37.9596 10.3197 38.3748 10.4029C40.0081 10.7775 40.6336 11.1862 41.454 12.2974C41.7685 12.7235 42.1031 13.5001 42.4126 14.5123L43.4921 16.0943C43.6377 15.9598 43.8084 15.8555 43.9946 15.7873C44.1807 15.7192 44.3785 15.6886 44.5765 15.6972C44.7577 15.7016 44.9373 15.7337 45.1088 15.7925C45.4547 14.5626 45.6073 13.2865 45.5611 12.0097C45.4574 9.50894 45.0453 7.89006 44.2679 6.60338Z" fill="#85807F"/>
<path id="Vector_16" d="M33.8466 9.26521C33.07 9.14357 32.2862 9.07316 31.5004 9.05444C30.7622 8.99578 30.0204 8.99618 29.2823 9.05562C28.6933 9.09038 28.1264 9.2925 27.6482 9.63823C27.2505 9.99822 26.9486 10.4515 26.7697 10.9572C26.6031 11.4118 26.3638 11.8363 26.0611 12.2141C25.7584 12.5592 25.4156 12.8673 25.1242 13.2226C24.7562 13.6503 24.5146 14.1722 24.4266 14.7295C24.3304 15.3527 24.2835 15.9779 24.2342 16.6059C24.2352 16.7311 24.2854 16.8508 24.3739 16.9394C24.4624 17.0279 24.5822 17.0781 24.7074 17.0791C24.8321 17.0767 24.9511 17.026 25.0393 16.9378C25.1275 16.8496 25.1781 16.7306 25.1806 16.6059C25.2496 15.7289 25.1936 14.6804 25.7496 13.9474C26.2803 13.2479 27.001 12.7382 27.3773 11.9208C27.5784 11.4839 27.7247 11.0006 28.014 10.6104C28.2943 10.2321 28.7293 10.0893 29.1772 10.0172C29.8528 9.94167 30.5342 9.93216 31.2117 9.98879C31.6741 10.0063 32.1362 10.0316 32.5976 10.0676C32.7983 10.0832 32.9988 10.101 33.1989 10.1229L33.3192 10.1365C33.3274 10.1374 33.4769 10.1572 33.3698 10.1422C33.4446 10.1526 33.5192 10.1644 33.5934 10.1777C33.7143 10.2075 33.842 10.1899 33.9503 10.1285C34.0586 10.067 34.1392 9.96633 34.1754 9.84722C34.2078 9.72626 34.1913 9.59741 34.1294 9.48852C34.0676 9.37963 33.9655 9.29941 33.845 9.26521H33.8466Z" fill="#211715"/>
<path id="Vector_17" d="M38.2508 10.8583C38.7271 10.9579 39.1924 11.104 39.6401 11.2946C39.8237 11.3843 39.9999 11.4883 40.1672 11.6055C40.1851 11.6183 40.203 11.6315 40.2208 11.6449C40.1837 11.6158 40.1869 11.6185 40.2301 11.6528C40.2648 11.6812 40.2989 11.7101 40.3326 11.7394C40.4128 11.81 40.4903 11.8841 40.5646 11.9608C41.2784 12.6968 41.649 13.6367 41.9582 14.6372C42.1372 15.2173 43.051 14.9699 42.8708 14.3857C42.6833 13.7358 42.4368 13.1044 42.1342 12.4994C41.8928 12.0562 41.5896 11.6496 41.2338 11.2916C40.4927 10.5274 39.5185 10.1816 38.5023 9.9458C37.9097 9.80779 37.6567 10.7203 38.2508 10.8583Z" fill="#211715"/>
<path id="Vector_18" d="M36.8054 9.7397C36.6565 9.10603 36.1603 8.56561 35.6618 8.1772C34.8318 7.55721 33.8502 7.17209 32.82 7.06226C32.6946 7.06283 32.5746 7.11286 32.486 7.20148C32.3974 7.2901 32.3473 7.41012 32.3468 7.53544C32.3499 7.65996 32.4007 7.77853 32.4888 7.8666C32.5769 7.95468 32.6954 8.00553 32.82 8.00863C33.2714 8.07149 33.7131 8.19072 34.1348 8.36352C34.0688 8.33651 34.1912 8.38875 34.2032 8.39427C34.2545 8.41754 34.3052 8.44172 34.3554 8.46683C34.4456 8.51165 34.5343 8.55923 34.6214 8.60957C34.7044 8.65768 34.7858 8.70842 34.8657 8.76178C34.9071 8.78938 34.948 8.81771 34.9883 8.84676C35.0055 8.85898 35.1039 8.93312 35.025 8.872C35.1573 8.97435 35.2825 9.08561 35.3996 9.205C35.4489 9.25547 35.497 9.30733 35.5431 9.36095C35.5686 9.39033 35.5918 9.42267 35.6183 9.45145C35.6401 9.47892 35.6321 9.46841 35.5944 9.41991C35.607 9.43686 35.6196 9.45401 35.6321 9.47117C35.7047 9.57356 35.7699 9.68103 35.8273 9.79274C35.8345 9.80772 35.8637 9.84972 35.86 9.86332C35.8637 9.84972 35.8217 9.75094 35.8491 9.84144C35.8643 9.89171 35.8817 9.94002 35.8937 9.99187C35.9271 10.1129 36.0071 10.2157 36.1163 10.2777C36.2255 10.3397 36.3548 10.3558 36.4758 10.3224C36.5968 10.289 36.6997 10.209 36.7616 10.0998C36.8236 9.99064 36.8397 9.86132 36.8064 9.74029L36.8054 9.7397Z" fill="#211715"/>
<path id="Vector_19" d="M24.1567 4.68597C23.2005 5.63569 22.6055 6.9336 22.219 8.20785C21.7804 9.74096 21.6136 11.339 21.7261 12.9297C21.7708 13.8936 21.9104 14.8508 22.1429 15.7873C22.2936 16.377 23.2066 16.1272 23.0556 15.5357C22.686 14.0369 22.5551 12.4892 22.6676 10.9496C22.7553 9.54969 23.1191 8.18101 23.7382 6.92237C24.014 6.3448 24.3814 5.81563 24.8261 5.35533C25.2599 4.92552 24.5895 4.25636 24.1567 4.68597Z" fill="#211715"/>
<path id="Vector_20" d="M41.4186 2.96882C39.6883 1.0599 37.2744 0.177412 34.7453 0.0293445C32.1885 -0.121089 29.5325 0.292357 27.3032 1.60663C26.6474 1.97985 26.0434 2.43749 25.5067 2.96783C24.9821 3.53129 24.5061 4.13808 24.0838 4.78171C24.0217 4.89037 24.0046 5.01906 24.0364 5.14013C24.0681 5.2612 24.1461 5.36499 24.2535 5.42919C24.3625 5.49004 24.4908 5.50636 24.6115 5.47471C24.7322 5.44306 24.8359 5.36591 24.901 5.25943C25.2509 4.7302 25.6393 4.2274 26.0629 3.75509C26.4819 3.31669 26.9549 2.93318 27.4704 2.61373C28.4766 1.97698 29.5858 1.52018 30.7486 1.26377C31.9149 1.0141 33.1078 0.91078 34.2997 0.956198C35.401 0.973616 36.4932 1.15823 37.539 1.50371C38.773 1.93156 39.878 2.66589 40.7504 3.63778C41.1603 4.08987 41.8279 3.41913 41.4195 2.96862L41.4186 2.96882Z" fill="#211715"/>
<path id="Vector_21" d="M45.5974 15.7875C45.8547 14.8032 46.0043 13.7938 46.0437 12.7772C46.0568 11.8098 45.99 10.843 45.8438 9.88666C45.6451 8.50298 45.2297 7.13232 44.4243 5.97617C43.9969 5.37426 43.503 4.82252 42.9519 4.33145C42.5015 3.92293 41.8304 4.59032 42.2827 5.00062C43.1672 5.80306 43.9057 6.70409 44.3393 7.79478C44.9095 9.22834 45.079 10.8242 45.0999 12.3559C45.0981 13.4292 44.959 14.4979 44.6859 15.5359C44.541 16.1274 45.4534 16.3798 45.5983 15.7875H45.5974Z" fill="#211715"/>
<path id="Vector_22" d="M24.6303 15.7586C24.3186 15.4802 23.9311 15.3011 23.5172 15.2439C23.1033 15.1867 22.6818 15.2542 22.3063 15.4376C22.0416 15.5826 21.8123 15.7845 21.6351 16.0288C21.4578 16.273 21.3369 16.5536 21.2811 16.8502C21.1306 17.5545 21.1237 18.2818 21.2607 18.9888C21.3977 19.6958 21.6758 20.3679 22.0784 20.965C22.6555 21.8256 23.4921 22.4567 24.5709 22.3092C24.6916 22.2753 24.7939 22.1951 24.8558 22.0862C24.9177 21.9772 24.9341 21.8482 24.9014 21.7272C24.8652 21.608 24.7847 21.5073 24.6763 21.4458C24.568 21.3843 24.4402 21.3667 24.3194 21.3968C23.5636 21.4999 22.9787 20.6905 22.6729 20.114C22.364 19.5531 22.1748 18.9342 22.1173 18.2964C22.0859 17.9425 22.1015 17.5861 22.1638 17.2363C22.2101 16.9855 22.3012 16.745 22.4327 16.5265C22.4024 16.5671 22.498 16.4547 22.5094 16.4423C22.5369 16.4076 22.5702 16.378 22.608 16.355C22.7314 16.2704 22.8717 16.2138 23.0193 16.1892C23.184 16.1539 23.3547 16.1571 23.518 16.1986C23.6813 16.24 23.8328 16.3187 23.9607 16.4283C24.4114 16.836 25.0828 16.1689 24.6299 15.7592L24.6303 15.7586Z" fill="#211715"/>
<path id="Vector_23" d="M43.8284 16.4278C44.0493 16.2418 44.3341 16.1496 44.622 16.1709C44.91 16.1921 45.1782 16.3252 45.3693 16.5416C45.3048 16.46 45.3941 16.585 45.4044 16.6007C45.4415 16.6606 45.4741 16.7232 45.5018 16.788C45.5573 16.9326 45.5988 17.0821 45.6258 17.2346C45.6881 17.5844 45.7037 17.9409 45.6723 18.2947C45.6159 18.9211 45.4325 19.5294 45.1335 20.0826C44.8275 20.6684 44.2385 21.5012 43.4708 21.3963C43.3499 21.3672 43.2225 21.3851 43.1144 21.4465C43.0063 21.5079 42.9256 21.608 42.8886 21.7267C42.8561 21.8477 42.8726 21.9766 42.9345 22.0856C42.9964 22.1945 43.0987 22.2747 43.2192 22.3087C44.9623 22.5469 45.9747 20.8289 46.4266 19.3937C46.6453 18.6562 46.6919 17.8782 46.5627 17.1199C46.53 16.8169 46.4371 16.5234 46.2894 16.2568C46.1417 15.9902 45.9422 15.7558 45.7027 15.5674C45.3176 15.3128 44.8588 15.1933 44.3984 15.2277C43.9381 15.2622 43.5022 15.4486 43.1593 15.7577C42.7058 16.1672 43.3775 16.8348 43.8284 16.4268V16.4278Z" fill="#211715"/>
<path id="Vector_24" d="M42.9473 21.0022C42.8571 21.4233 42.7377 21.8376 42.5901 22.2422C42.5445 22.37 42.4657 22.5811 42.4314 22.661C42.3971 22.7408 42.36 22.8187 42.3275 22.8976C42.3196 22.9173 42.2748 23.0318 42.3062 22.9547C42.3393 22.8737 42.2864 23.0011 42.2786 23.0164C42.2608 23.0559 42.2425 23.0953 42.2239 23.1336C42.1754 23.2349 42.1254 23.3349 42.0717 23.4342C41.9534 23.6584 41.8261 23.8782 41.6938 24.0947C41.0128 25.2509 40.1418 26.2841 39.1173 27.1507C38.5636 27.6239 37.9086 27.9637 37.2029 28.1438C36.6098 28.2806 36.8608 29.1933 37.4544 29.0563C38.9049 28.7211 40.1125 27.6633 41.0607 26.5636C41.8767 25.6453 42.5596 24.6169 43.0895 23.5086C43.1402 23.3972 43.1847 23.2834 43.2322 23.1708C43.1695 23.3195 43.3131 22.9863 43.3168 22.9772C43.3562 22.8827 43.3939 22.7877 43.4298 22.6923C43.611 22.2247 43.7549 21.7434 43.86 21.253C43.8902 21.1321 43.8728 21.0043 43.8112 20.8959C43.7497 20.7875 43.6488 20.707 43.5295 20.671C43.4086 20.6389 43.2798 20.6555 43.171 20.7173C43.0621 20.7791 42.9818 20.8811 42.9473 21.0015V21.0022Z" fill="#211715"/>
<path id="Vector_25" d="M23.902 21.2197C24.2219 22.6439 24.7986 23.998 25.6037 25.2156C26.47 26.5155 27.608 27.731 28.9846 28.495C29.6878 28.8868 30.4559 29.1485 31.252 29.2676C31.3728 29.2969 31.5003 29.2791 31.6085 29.2177C31.7166 29.1563 31.7974 29.056 31.8342 28.9372C31.8666 28.8162 31.8501 28.6873 31.7882 28.5783C31.7263 28.4694 31.6241 28.3891 31.5035 28.355C28.6534 27.9344 26.5219 25.4636 25.441 22.9311C25.1735 22.297 24.9637 21.64 24.8143 20.9681C24.6798 20.3745 23.7671 20.6257 23.9016 21.2197H23.902Z" fill="#211715"/>
<path id="Vector_26" d="M32.1206 24.1869C32.6997 24.4861 33.3446 24.6353 33.9962 24.6206C34.6703 24.6496 35.3349 24.454 35.8858 24.0646C35.974 23.9756 36.0234 23.8553 36.0234 23.73C36.0234 23.6047 35.974 23.4845 35.8858 23.3955C35.7956 23.3096 35.6758 23.2617 35.5512 23.2617C35.4267 23.2617 35.3069 23.3096 35.2167 23.3955C35.3592 23.2844 35.245 23.3718 35.2084 23.3955C35.1717 23.4191 35.1317 23.4422 35.0919 23.4631C35.0601 23.4796 34.9183 23.5366 35.0453 23.4893C34.9919 23.509 34.9391 23.5301 34.8846 23.5484C34.7378 23.5951 34.5874 23.6294 34.4349 23.6512C34.5029 23.6411 34.4126 23.6529 34.388 23.6553C34.3438 23.6598 34.2997 23.6634 34.2555 23.6664C34.149 23.6733 34.0424 23.6758 33.9357 23.6752C33.8403 23.6752 33.7448 23.6715 33.6496 23.665C33.6058 23.662 33.5623 23.6585 33.5185 23.6541C33.5165 23.6541 33.3608 23.6326 33.4509 23.6466C33.309 23.625 33.1687 23.5939 33.0309 23.5534C32.9718 23.5358 32.9148 23.5139 32.8566 23.4942C32.8371 23.4891 32.8183 23.4817 32.8004 23.4723C32.8959 23.537 32.8501 23.4946 32.8119 23.4765C32.7397 23.4426 32.6687 23.4073 32.5984 23.37C32.4894 23.3094 32.3612 23.2932 32.2405 23.3248C32.1199 23.3564 32.0161 23.4334 31.9509 23.5398C31.8889 23.6485 31.872 23.7771 31.9037 23.8981C31.9354 24.0192 32.0133 24.1229 32.1206 24.1872V24.1869Z" fill="#211715"/>
<path id="Vector_27" d="M33.7632 19.7587C33.85 20.0719 33.9194 20.3897 33.9712 20.7106L33.9542 20.5848C33.9605 20.6282 33.9618 20.6723 33.958 20.7161L33.9747 20.5903C33.9719 20.6104 33.9671 20.6302 33.9603 20.6494L34.0081 20.5363C34.0023 20.5496 33.9953 20.5623 33.9872 20.5743L34.0611 20.4785C34.052 20.4899 34.0416 20.5002 34.0301 20.5093L34.1258 20.4353C34.1016 20.4502 34.0764 20.4633 34.0504 20.4748L34.1634 20.427C34.1227 20.4445 34.0801 20.4569 34.0364 20.4641L34.1622 20.4471C34.1229 20.4518 34.0832 20.4518 34.0439 20.4471L34.1697 20.4641C34.1248 20.4578 34.0806 20.447 34.0357 20.4408C33.9124 20.4121 33.7829 20.4291 33.6711 20.4886C33.6174 20.5199 33.5705 20.5615 33.5329 20.611C33.4953 20.6606 33.4678 20.717 33.4521 20.7771C33.4363 20.8372 33.4326 20.8999 33.441 20.9615C33.4495 21.0231 33.47 21.0824 33.5014 21.136C33.5314 21.1894 33.5719 21.2361 33.6205 21.2734C33.6691 21.3107 33.7248 21.3377 33.7841 21.3529C33.885 21.3665 33.9832 21.3923 34.0859 21.3967C34.24 21.3976 34.392 21.3616 34.5292 21.2916C34.6157 21.2524 34.6924 21.1944 34.7536 21.1217C34.8148 21.049 34.859 20.9636 34.8829 20.8716C34.914 20.7219 34.9125 20.5672 34.8783 20.4182C34.8265 20.1116 34.7557 19.807 34.6766 19.5069C34.6601 19.447 34.632 19.3909 34.5938 19.3419C34.5556 19.2928 34.5081 19.2518 34.4541 19.2211C34.4 19.1904 34.3405 19.1707 34.2788 19.163C34.2171 19.1554 34.1545 19.1599 34.0946 19.1764C34.0347 19.193 33.9786 19.2211 33.9296 19.2593C33.8806 19.2975 33.8395 19.345 33.8088 19.399C33.7782 19.4531 33.7584 19.5126 33.7508 19.5743C33.7431 19.636 33.7476 19.6986 33.7642 19.7585L33.7632 19.7587Z" fill="#211715"/>
<path id="Vector_28" d="M28.7159 17.0671C28.5569 17.5837 28.6607 18.772 29.6392 18.8731C30.9325 18.8654 31.0013 17.4287 30.5658 16.7532C30.2095 16.2002 29.1612 15.9701 28.7159 17.0671Z" fill="#211715"/>
<path id="Vector_29" d="M39.0735 17.0671C39.2326 17.5837 39.1289 18.772 38.1504 18.8731C36.857 18.8652 36.788 17.4287 37.2237 16.7532C37.5798 16.2002 38.6281 15.9701 39.0735 17.0671Z" fill="#211715"/>
<path id="Vector_30" d="M16.4341 34.6395C16.8383 34.7321 17.2188 34.8366 17.6427 34.9648C17.8615 35.0401 18.0613 35.1623 18.2281 35.3226C18.3949 35.483 18.5248 35.6778 18.6088 35.8934C18.9203 36.6663 18.9302 37.1493 18.6955 38.0228C18.4015 39.048 17.942 40.0183 17.3351 40.8954C17.1828 41.1091 17.0112 41.3084 16.8225 41.4908C16.4183 41.8772 16.4716 42.3978 16.3947 42.9873C16.3513 43.3086 16.3848 43.6024 16.3671 43.8331C15.2314 44.2313 12.0749 44.5074 10.61 44.6533C10.3931 43.9908 9.52362 42.0843 9.4211 41.9817C8.48458 41.0551 7.41203 38.7463 7.36865 36.5677L7.41794 36.5638C7.40709 36.3687 7.40709 36.1732 7.41794 35.9782C7.43174 35.6982 7.68805 34.9884 8.25785 34.8425C8.46278 34.7749 8.68402 34.775 8.88888 34.8429C9.09374 34.9107 9.27135 35.0426 9.39547 35.2191L9.4487 35.2231C9.46592 34.9891 9.49886 34.7566 9.54728 34.5271C9.61589 34.2989 9.74829 34.0951 9.92889 33.9396C10.1095 33.7842 10.3307 33.6836 10.5666 33.6497C11.0418 33.5748 11.2271 33.8765 11.4657 34.1998C11.4676 33.7956 11.6372 33.3224 12.0059 33.1272C12.4081 32.9163 13.0804 32.8512 13.4353 33.281L13.5556 33.2653C13.2914 31.2877 13.039 29.186 13.0331 28.6655C13.0476 28.3398 13.1742 28.0292 13.3917 27.7862C13.6091 27.5433 13.9038 27.3831 14.2259 27.3327C14.8844 27.2558 15.5705 28.2258 15.6474 28.6517C15.9964 30.643 16.2054 32.1 16.4755 34.462L16.4341 34.6395Z" fill="white"/>
<path id="Vector_31" d="M16.9483 34.4623C16.7593 32.8061 16.5447 31.1535 16.2713 29.5092C16.2315 29.1394 16.1652 28.7729 16.0729 28.4126C15.9652 28.1103 15.8023 27.8306 15.5925 27.5877C15.1013 26.9852 14.3983 26.6764 13.6557 27.0122C13.3309 27.1618 13.0553 27.4008 12.8614 27.7014C12.6675 28.0019 12.5633 28.3515 12.5609 28.7091C12.568 29.0368 12.6096 29.3659 12.6439 29.6914C12.7636 30.8322 12.9103 31.9702 13.0601 33.1072C13.2179 34.3016 13.3756 35.497 13.5656 36.6867C13.5998 36.8072 13.68 36.9094 13.7889 36.9713C13.8978 37.0331 14.0267 37.0496 14.1477 37.0171C14.267 36.9812 14.368 36.9007 14.4296 36.7923C14.4911 36.6839 14.5085 36.556 14.4781 36.4351C14.1581 34.431 13.9054 32.4473 13.6721 30.4292C13.625 30.0215 13.5791 29.6131 13.5422 29.2042C13.5167 28.9213 13.4584 28.6102 13.5792 28.3478C13.6341 28.2274 13.7129 28.1195 13.8108 28.0306C13.9088 27.9417 14.0238 27.8736 14.1488 27.8306C14.191 27.8102 14.2371 27.7993 14.2839 27.7987C14.3307 27.7981 14.3771 27.8078 14.4197 27.827C14.5075 27.8685 14.5894 27.9211 14.6636 27.9836C14.8683 28.16 15.0325 28.3785 15.1451 28.6242C15.1692 28.6764 15.1494 28.633 15.1451 28.6226C15.1533 28.6428 15.1604 28.6634 15.1664 28.6843C15.1828 28.7435 15.1938 28.7998 15.2044 28.8594C15.2397 29.0565 15.2733 29.2557 15.307 29.4538C15.5891 31.1167 15.8103 32.7868 16.0018 34.4617C16.0054 34.5861 16.0564 34.7043 16.1444 34.7923C16.2323 34.8803 16.3506 34.9313 16.475 34.9349C16.6002 34.9341 16.7201 34.884 16.8087 34.7954C16.8973 34.7069 16.9474 34.587 16.9481 34.4617L16.9483 34.4623Z" fill="#211715"/>
<path id="Vector_32" d="M9.8034 34.9798C9.59462 34.6714 9.27904 34.4514 8.91755 34.3621C8.56241 34.286 8.19203 34.3308 7.8653 34.4894C7.62964 34.6239 7.42694 34.8092 7.27199 35.032C7.11703 35.2547 7.01373 35.5092 6.9696 35.7769C6.88911 36.3845 6.93612 37.0023 7.10761 37.5908C7.18053 37.9537 7.33365 38.2958 7.55576 38.592C7.76203 38.8276 8.03942 38.9897 8.34598 39.0537C9.07272 39.1959 9.7612 38.7327 10.081 38.0971C10.1414 37.988 10.1574 37.8599 10.1258 37.7394C10.0942 37.6188 10.0173 37.515 9.91124 37.4496C9.80259 37.3875 9.67389 37.3705 9.55282 37.4022C9.43175 37.4339 9.32796 37.5119 9.26377 37.6194C9.22323 37.7013 9.17712 37.7803 9.12575 37.856C9.17189 37.7891 9.09736 37.8861 9.07745 37.906C9.06148 37.922 8.96507 38.0011 9.0183 37.9622C8.92943 38.0268 8.83448 38.0826 8.73478 38.1288C8.80655 38.0957 8.71822 38.1288 8.68924 38.1375C8.68076 38.1399 8.61412 38.1466 8.66775 38.142C8.72138 38.1375 8.63246 38.1397 8.62319 38.1393C8.60131 38.1393 8.57962 38.1381 8.55773 38.1359C8.64409 38.1442 8.57015 38.1371 8.55241 38.1312C8.50963 38.1172 8.46526 38.1087 8.42347 38.0918C8.49109 38.12 8.39251 38.0687 8.3726 38.0588C8.3726 38.0588 8.30773 38.0174 8.3448 38.0437C8.37634 38.0661 8.3099 38.0137 8.3034 38.0072C8.28526 37.9896 8.22019 37.9163 8.23242 37.933C8.24464 37.9498 8.19299 37.8634 8.18214 37.841C8.13076 37.7183 8.08788 37.5922 8.05379 37.4636C7.92424 37.0409 7.86626 36.5996 7.88226 36.1578C7.88226 36.1125 7.88581 36.0673 7.88699 36.0222C7.88877 35.9411 7.90099 35.9563 7.88049 36.0275C7.90217 35.9526 7.91302 35.8759 7.93825 35.8015C7.9491 35.7694 7.98183 35.6943 7.94851 35.7674C7.96605 35.729 7.98439 35.6911 8.0045 35.6543C8.02461 35.6174 8.04728 35.5784 8.07114 35.5421C8.08317 35.5235 8.09578 35.5052 8.1088 35.4875C8.15198 35.4283 8.06661 35.532 8.11806 35.4786C8.13778 35.4571 8.15907 35.4352 8.17978 35.4137C8.18549 35.408 8.25056 35.3506 8.21704 35.3772C8.20067 35.3903 8.29314 35.3299 8.32055 35.3155C8.31246 35.3199 8.2614 35.3368 8.31365 35.3181C8.34487 35.3072 8.37666 35.298 8.40888 35.2905C8.4483 35.2775 8.48963 35.2713 8.53112 35.2722C8.62365 35.2594 8.7179 35.2731 8.803 35.3116C8.87359 35.3462 8.93603 35.3954 8.98616 35.4559C9.05213 35.5613 9.15585 35.6376 9.27614 35.6691C9.39643 35.7007 9.52423 35.6851 9.63344 35.6257C9.74119 35.5618 9.81942 35.458 9.8512 35.3369C9.88297 35.2157 9.86573 35.0869 9.8032 34.9784L9.8034 34.9798Z" fill="#211715"/>
<path id="Vector_33" d="M11.8744 33.9604C11.7052 33.6752 11.4658 33.4381 11.179 33.2717C10.9904 33.1965 10.7877 33.1632 10.5849 33.1741C10.3822 33.185 10.1842 33.2399 10.0047 33.3348C9.69932 33.4797 9.44205 33.7094 9.26361 33.9965C9.1024 34.301 9.01196 34.638 8.99902 34.9823C8.91303 35.7541 8.96754 36.535 9.1599 37.2873C9.21724 37.5594 9.31668 37.8209 9.45465 38.0624C9.68122 38.4005 10.0297 38.6379 10.4272 38.725C11.1911 38.8891 12.2074 38.3613 12.3145 37.5411C12.3139 37.4157 12.2639 37.2957 12.1752 37.2071C12.0866 37.1185 11.9666 37.0684 11.8413 37.0679C11.7168 37.0709 11.5982 37.1218 11.5101 37.2098C11.422 37.2979 11.3712 37.4165 11.3681 37.5411C11.3904 37.3709 11.4016 37.4389 11.3502 37.4987C11.3105 37.5432 11.2665 37.5838 11.2188 37.6197C11.1383 37.6772 11.0532 37.7279 10.9643 37.7713C10.8486 37.8163 10.7218 37.8244 10.6012 37.7946C10.4807 37.7648 10.3723 37.6985 10.2908 37.6047C10.248 37.5522 10.2147 37.4926 10.1922 37.4287C10.1487 37.3104 10.1114 37.1881 10.0793 37.0653C10.0052 36.7809 9.9554 36.4907 9.9304 36.1978C9.89846 35.8349 9.89886 35.4699 9.93159 35.1071C9.94639 34.942 9.97274 34.7782 10.0105 34.6168C10.0174 34.5915 10.0256 34.5665 10.0351 34.5421C10.0181 34.5829 10.0172 34.5874 10.0325 34.5561C10.0583 34.506 10.0879 34.4579 10.1211 34.4123C10.0871 34.4561 10.1763 34.3549 10.1851 34.3461C10.2247 34.3056 10.2687 34.2698 10.3164 34.2394C10.4123 34.1736 10.5221 34.1307 10.6372 34.1142C10.7423 34.103 10.7687 34.1101 10.8308 34.1639C10.916 34.2465 10.9915 34.3384 11.056 34.438C11.1218 34.5436 11.2256 34.62 11.346 34.6516C11.4664 34.6831 11.5943 34.6674 11.7035 34.6077C11.8111 34.5437 11.8892 34.44 11.921 34.3189C11.9528 34.1977 11.9356 34.069 11.8732 33.9604H11.8744Z" fill="#211715"/>
<path id="Vector_34" d="M13.7691 32.9467C13.2857 32.3997 12.4562 32.392 11.8348 32.6864C11.2038 32.9855 10.9349 33.7536 11.0067 34.4135C11.0867 35.1519 11.2131 35.8875 11.3578 36.6156C11.4227 36.9421 11.4584 37.2662 11.6987 37.5168C11.9476 37.7661 12.2661 37.9341 12.6124 37.9989C12.8351 38.0424 13.0647 38.0369 13.2851 37.9827C13.5056 37.9285 13.7115 37.827 13.8888 37.6852C14.0932 37.4871 14.2597 37.2532 14.3801 36.9952C14.6859 36.4672 13.8675 35.9896 13.5629 36.5176C13.5084 36.6117 13.4615 36.7101 13.4051 36.8033C13.3957 36.8193 13.2979 36.9524 13.3541 36.8865C13.3413 36.9017 13.2269 37.0048 13.2752 36.9707C13.1779 37.0354 13.0652 37.0734 12.9485 37.0807C12.8318 37.088 12.7153 37.0645 12.6106 37.0125C12.5381 36.9804 12.4699 36.9394 12.4077 36.8903C12.4339 36.9068 12.426 36.898 12.3842 36.864C12.3448 36.82 12.3416 36.819 12.3746 36.8611C12.3463 36.8121 12.3483 36.8199 12.3805 36.8845C12.3718 36.8467 12.3633 36.8087 12.3551 36.7706C12.3373 36.6892 12.3201 36.6077 12.3034 36.5259C12.2327 36.1823 12.1684 35.8374 12.1106 35.4912C12.0568 35.1724 12.0059 34.853 11.967 34.532C11.9115 34.2767 11.9349 34.0105 12.0341 33.7688C12.0866 33.6797 12.1584 33.6035 12.2444 33.5459C12.3303 33.4882 12.4281 33.4507 12.5305 33.4359C12.6329 33.4212 12.7373 33.4297 12.8359 33.4608C12.9346 33.4918 13.025 33.5447 13.1005 33.6154C13.5047 34.0726 14.1721 33.4011 13.7697 32.9463L13.7691 32.9467Z" fill="#211715"/>
<path id="Vector_35" d="M16.5327 36.9575C16.0662 36.7739 15.5075 36.5986 15.1072 36.2883C14.9472 36.1523 14.8306 35.9723 14.7721 35.7706C14.7453 35.6931 14.7331 35.6114 14.736 35.5294C14.7393 35.3914 14.7176 35.563 14.7466 35.4334C14.7466 35.4334 14.7898 35.3035 14.7715 35.3445C14.9026 35.0488 15.2535 34.9395 15.6128 34.9612C16.1873 34.9959 16.79 35.2053 17.3397 35.368C17.5415 35.4179 17.7274 35.518 17.8801 35.6591C18.0328 35.8002 18.1473 35.9777 18.2129 36.175C18.3838 36.6143 18.4222 37.0941 18.3235 37.5551C18.0868 38.6057 17.6529 39.6019 17.0449 40.4908C16.7198 40.9735 16.2169 41.3189 16.0605 41.9011C15.8931 42.5243 15.9316 43.1959 15.8937 43.8333L16.2411 43.3768C15.3933 43.6679 14.4633 43.7601 13.5781 43.8684C12.5905 43.9892 11.5997 44.0813 10.6096 44.1795L11.066 44.5269C10.7569 43.6266 10.3766 42.7523 9.9288 41.9123C9.85804 41.7815 9.76938 41.6611 9.6654 41.5547C9.48878 41.3608 9.33039 41.151 9.19221 40.9281C8.37575 39.6141 7.91069 38.1123 7.84166 36.5669C7.82569 35.9591 6.87912 35.9567 6.89529 36.5669C6.95076 38.1164 7.37264 39.6307 8.12636 40.9857C8.27589 41.2602 8.44407 41.5242 8.62971 41.7757C8.72336 41.9011 8.81977 42.0255 8.92308 42.1432C8.95857 42.1826 8.99406 42.2242 9.03211 42.2615C9.09126 42.3207 9.05459 42.3362 9.05518 42.2761C9.05518 42.2992 9.0195 42.1996 9.03547 42.2536C9.09378 42.3898 9.16185 42.5216 9.23913 42.6479C9.34678 42.8703 9.4499 43.0949 9.55144 43.3203C9.77697 43.7958 9.97756 44.2828 10.1524 44.7792C10.1811 44.8785 10.2409 44.9658 10.3231 45.0284C10.4052 45.0909 10.5054 45.1254 10.6086 45.1266C11.6218 45.0261 12.6356 44.932 13.6461 44.807C14.5895 44.6905 15.5871 44.6006 16.4917 44.2903C16.59 44.26 16.6763 44.1997 16.7386 44.1179C16.8009 44.0361 16.836 43.9368 16.8391 43.8341C16.8588 43.4973 16.8507 43.1653 16.8858 42.8285C16.8859 42.5515 16.931 42.2763 17.0195 42.0137C17.1293 41.7781 17.3941 41.5854 17.5554 41.3828C17.738 41.1533 17.9055 40.9123 18.057 40.6611C18.3862 40.1095 18.6672 39.5304 18.8967 38.9303C19.1541 38.3256 19.301 37.6797 19.3304 37.0231C19.3351 36.3553 19.1209 35.7044 18.7206 35.1698C18.3168 34.6643 17.7596 34.4973 17.1581 34.3339C16.5163 34.1592 15.8174 33.9395 15.1471 34.0474C14.889 34.0829 14.6434 34.1805 14.4314 34.3319C14.2194 34.4833 14.0473 34.6839 13.93 34.9165C13.6358 35.5576 13.8452 36.2889 14.2892 36.8072C14.543 37.0677 14.8484 37.2722 15.1859 37.4076C15.5432 37.5779 15.9113 37.7262 16.2796 37.8713C16.4009 37.9042 16.5304 37.8878 16.6397 37.8256C16.749 37.7635 16.8293 37.6606 16.8631 37.5395C16.8936 37.4186 16.8763 37.2905 16.8147 37.1821C16.7532 37.0736 16.6522 36.9933 16.5327 36.9575Z" fill="#211715"/>
</g>
</g>
<defs>
<clipPath id="clip0_2067_187">
<rect width="64" height="64" fill="white"/>
</clipPath>
</defs>
</svg>
