<svg width="64" height="64" viewBox="0 0 64 64" fill="none" xmlns="http://www.w3.org/2000/svg">
<g id="flat-color-icons:globe">
<path id="Vector" d="M32 5.3335C17.3333 5.3335 5.33333 17.3335 5.33333 32.0002C5.33333 46.6668 17.3333 58.6668 32 58.6668C46.6667 58.6668 58.6667 46.6668 58.6667 32.0002C58.6667 17.3335 46.6667 5.3335 32 5.3335Z" fill="#7CB342"/>
<path id="Vector_2" d="M60 32C60 47.6 47.3333 60 32 60C16.6667 60 4 47.6 4 32C4 16.4 16.4 4 32 4C47.6 4 60 16.4 60 32ZM31.7333 44.9333C31.7333 44.4 31.4667 44.1333 30.9333 43.8667C29.2 43.3333 27.6 43.3333 26.1333 41.8667C25.8667 41.3333 25.8667 40.8 25.6 40.1333C25.0667 39.6 23.6 39.3333 22.8 39.0667H17.2C16.4 38.8 15.7333 37.6 15.2 36.8C15.2 36.5333 15.2 36 14.6667 36C14.1333 35.7333 13.6 36.2667 12.9333 36C12.6667 35.7333 12.6667 35.4667 12.6667 35.2C12.6667 34.4 13.2 33.4667 13.7333 32.9333C14.5333 32.4 15.4667 33.2 16.2667 33.2C16.5333 33.2 16.5333 33.2 16.8 33.4667C17.6 33.7333 17.8667 34.8 17.8667 35.7333V36.2667C17.8667 36.5333 18.1333 36.5333 18.4 36.5333C18.6667 35.0667 18.6667 33.7333 18.9333 32.2667C18.9333 30.5333 20.6667 28.9333 22 28.4C22.5333 28.1333 22.8 28.6667 23.4667 28.4C25.2 27.8667 29.3333 26.1333 28.5333 23.8667C28 21.8667 26.2667 20 24 20.2667C23.4667 20.5333 23.2 20.8 22.6667 21.0667C21.8667 21.6 20.1333 23.3333 19.3333 23.3333C17.8667 23.0667 17.8667 21.0667 18.2667 20.2667C18.5333 19.2 21.0667 15.4667 22.8 16.1333L23.8667 17.2C24.4 17.4667 25.3333 17.4667 26.1333 17.4667C26.4 17.4667 26.6667 17.4667 26.9333 17.2C27.2 16.9333 27.2 16.9333 27.2 16.6667C27.2 15.8667 26.4 14.9333 25.8667 14.4C25.3333 13.8667 24.4 13.3333 23.6 12.9333C20.8 12.1333 16.2667 13.2 14.1333 15.2C12 17.2 10.2667 20.5333 9.06667 23.3333C8.53333 25.0667 8 27.2 7.73333 29.2C7.46667 30.5333 7.2 31.7333 8 33.0667C8.8 34.8 10.5333 36.4 12.2667 37.6C13.3333 38.4 15.6 38.4 16.8 39.8667C17.6 40.9333 17.3333 42.4 17.3333 43.7333C17.3333 45.4667 18.4 46.8 19.0667 48.2667C19.3333 49.0667 19.6 50.2667 19.8667 51.0667C19.8667 51.3333 20.1333 53.0667 20.1333 53.3333C21.8667 54.1333 23.2 55.0667 25.2 55.6C25.4667 55.6 26.5333 53.8667 26.5333 53.6C27.3333 52.8 28 51.6 28.8 51.0667C29.3333 50.8 29.8667 50.5333 30.5333 50C31.0667 49.4667 31.3333 48.2667 31.6 47.4667C31.7333 46.8 32 45.7333 31.7333 44.9333ZM32.2667 19.0667C32.5333 19.0667 32.8 18.8 33.3333 18.5333C34.1333 18 35.0667 17.0667 35.8667 16.5333C36.6667 16 37.6 15.0667 38.1333 14.5333C38.9333 14 39.6 12.8 39.8667 12C40.1333 11.4667 40.9333 10.2667 40.6667 9.46667C40.4 8.93333 38.9333 8.66667 38.4 8.4C36.1333 7.86667 34.2667 7.6 32 7.6C31.2 7.6 30 7.86667 29.7333 8.66667C29.4667 10.1333 30.5333 9.73333 31.7333 10.1333C31.7333 10.1333 32 12.4 32 12.6667C32.2667 14 31.4667 14.9333 31.4667 16.2667C31.4667 17.0667 31.4667 18.5333 32 19.0667H32.2667ZM55.7333 38.6667C56 38.1333 56 37.2 56.2667 36.6667C56.5333 35.3333 56.5333 33.8667 56.5333 32.5333C56.5333 29.7333 56.2667 26.9333 55.4667 24.4C54.9333 23.6 54.6667 22.6667 54.4 21.8667C53.8667 20.4 53.0667 19.0667 51.8667 18C50.8 16.5333 49.3333 12.6667 46.8 13.8667C46 14.1333 45.4667 15.2 44.8 15.8667C44.2667 16.6667 43.7333 17.6 43.0667 18.4C42.8 18.6667 42.5333 19.2 42.8 19.4667C42.8 19.7333 43.0667 19.7333 43.3333 19.7333C43.8667 20 44.1333 20 44.6667 20.2667C44.9333 20.2667 45.2 20.5333 44.9333 20.8C44.9333 20.8 44.9333 21.0667 44.6667 21.0667C43.3333 22.5333 41.8667 23.6 40.5333 24.9333C40.2667 25.2 40 25.7333 40 26C40 26.2667 40.2667 26.2667 40.2667 26.5333C40.2667 26.8 40 26.8 39.7333 27.0667C39.2 27.3333 38.6667 27.6 38.2667 27.8667C38 28.4 38.2667 29.3333 38 29.8667C37.7333 31.3333 36.9333 32.4 36.2667 33.7333C35.7333 34.5333 35.4667 35.4667 34.9333 36.2667C34.9333 37.3333 34.6667 38.2667 35.2 39.0667C36.5333 41.0667 39.0667 39.8667 41.0667 40.8C41.6 41.0667 42.1333 41.0667 42.5333 41.6C43.3333 42.4 43.3333 43.8667 43.6 44.6667C43.8667 45.7333 44.1333 46.9333 44.6667 48C44.9333 49.3333 45.4667 50.8 45.7333 51.8667C48.2667 49.8667 50.5333 47.7333 52.1333 44.9333C54.1333 43.2 54.9333 40.9333 55.7333 38.6667Z" fill="#0277BD"/>
</g>
</svg>
