<svg width="69" height="69" viewBox="0 0 69 69" fill="none" xmlns="http://www.w3.org/2000/svg">
<g id="flat-color-icons:online-support">
<path id="Vector" d="M18.6875 43.125H50.3125V60.375H18.6875V43.125Z" fill="#BF360C"/>
<g id="Group">
<path id="Vector_2" d="M14.375 43.125C17.5506 43.125 20.125 40.5506 20.125 37.375C20.125 34.1994 17.5506 31.625 14.375 31.625C11.1994 31.625 8.625 34.1994 8.625 37.375C8.625 40.5506 11.1994 43.125 14.375 43.125Z" fill="#FFA726"/>
<path id="Vector_3" d="M54.625 43.125C57.8006 43.125 60.375 40.5506 60.375 37.375C60.375 34.1994 57.8006 31.625 54.625 31.625C51.4494 31.625 48.875 34.1994 48.875 37.375C48.875 40.5506 51.4494 43.125 54.625 43.125Z" fill="#FFA726"/>
</g>
<path id="Vector_4" d="M56.0625 27.3126C56.0625 9.05631 12.9375 15.3813 12.9375 27.3126V41.6876C12.9375 53.6188 22.5687 63.2501 34.5 63.2501C46.4313 63.2501 56.0625 53.6188 56.0625 41.6876V27.3126Z" fill="#FFB74D"/>
<g id="Group_2">
<path id="Vector_5" d="M43.125 40.25C44.7128 40.25 46 38.9628 46 37.375C46 35.7872 44.7128 34.5 43.125 34.5C41.5372 34.5 40.25 35.7872 40.25 37.375C40.25 38.9628 41.5372 40.25 43.125 40.25Z" fill="#784719"/>
<path id="Vector_6" d="M25.875 40.25C27.4628 40.25 28.75 38.9628 28.75 37.375C28.75 35.7872 27.4628 34.5 25.875 34.5C24.2872 34.5 23 35.7872 23 37.375C23 38.9628 24.2872 40.25 25.875 40.25Z" fill="#784719"/>
</g>
<path id="Vector_7" d="M34.5 2.875C22.2812 2.875 4.3125 11.2125 4.3125 51.175L18.6875 60.375V34.5L42.8375 20.4125L50.3125 30.1875V60.375L64.6875 48.5875C64.6875 40.5375 63.3937 6.9 42.55 6.9L40.5375 2.875H34.5Z" fill="#FF5722"/>
<path id="Vector_8" d="M64.6875 34.5C63.825 34.5 63.25 35.075 63.25 35.9375V25.875C63.25 13.225 52.9 2.875 40.25 2.875H27.3125C26.45 2.875 25.875 3.45 25.875 4.3125C25.875 5.175 26.45 5.75 27.3125 5.75H40.25C51.3188 5.75 60.375 14.8063 60.375 25.875V40.25C60.375 41.1125 60.95 41.6875 61.8125 41.6875C62.675 41.6875 63.25 41.1125 63.25 40.25V43.125C63.25 48.7313 58.7938 53.1875 53.1875 53.1875H34.5C33.6375 53.1875 33.0625 53.7625 33.0625 54.625C33.0625 55.4875 33.6375 56.0625 34.5 56.0625H53.1875C60.375 56.0625 66.125 50.3125 66.125 43.125V35.9375C66.125 35.075 65.55 34.5 64.6875 34.5Z" fill="#757575"/>
<g id="Group_3">
<path id="Vector_9" d="M64.6875 31.625H63.25C61.6687 31.625 60.375 32.9187 60.375 34.5V40.25C60.375 41.8313 61.6687 43.125 63.25 43.125H64.6875C66.2688 43.125 67.5625 41.8313 67.5625 40.25V34.5C67.5625 32.9187 66.2688 31.625 64.6875 31.625Z" fill="#37474F"/>
<path id="Vector_10" d="M34.5 57.5C36.0878 57.5 37.375 56.2128 37.375 54.625C37.375 53.0372 36.0878 51.75 34.5 51.75C32.9122 51.75 31.625 53.0372 31.625 54.625C31.625 56.2128 32.9122 57.5 34.5 57.5Z" fill="#37474F"/>
</g>
</g>
</svg>
