<svg xmlns="http://www.w3.org/2000/svg" x="0px" y="0px" width="100" height="100" viewBox="0 0 60 60">
<path fill="#f9e3ae" d="M11.412,27.878c-2.275,11.373,5.101,22.436,16.474,24.711s22.436-5.101,24.711-16.474 c2.275-11.373-5.101-22.436-16.474-24.711S13.686,16.506,11.412,27.878z"></path><path fill="#faefde" d="M36.12,11.41c-6.481-1.308-13.199,0.524-18.12,4.94c-1.244,1.094-1.366,2.99-0.272,4.234 c0.158,0.179,0.336,0.339,0.532,0.476l0,0c1.149,0.804,2.703,0.705,3.74-0.24c6.181-5.516,15.663-4.977,21.179,1.204 c1.055,1.182,1.916,2.524,2.551,3.976c0.581,1.402,2.118,2.149,3.58,1.74l0,0c1.599-0.436,2.541-2.085,2.106-3.683 c-0.029-0.107-0.065-0.213-0.106-0.317C48.596,17.372,42.91,12.757,36.12,11.41z"></path><path fill="#f6d397" d="M24.51,51.62c6.168,2.36,13.089,1.671,18.67-1.86c1.41-0.87,1.848-2.719,0.977-4.129 c-0.126-0.204-0.276-0.393-0.447-0.561l0,0c-0.996-0.977-2.533-1.138-3.71-0.39c-7.012,4.411-16.273,2.303-20.684-4.709 c-0.845-1.343-1.471-2.812-1.856-4.351c-0.34-1.479-1.731-2.47-3.24-2.31l0,0c-1.646,0.188-2.828,1.675-2.639,3.322 c0.011,0.1,0.028,0.2,0.049,0.298C13.236,43.652,18.055,49.149,24.51,51.62z"></path><path fill="#8d6c9f" d="M32,10c-12.15,0-22,9.85-22,22s9.85,22,22,22s22-9.85,22-22S44.15,10,32,10z M32,52 c-11.046,0-20-8.954-20-20s8.954-20,20-20s20,8.954,20,20S43.046,52,32,52z"></path><path fill="#8d6c9f" d="M42.08,19.58c-0.411-0.369-1.043-0.336-1.412,0.075c-0.369,0.411-0.336,1.043,0.075,1.412 c0.025,0.022,0.05,0.043,0.077,0.063c0.541,0.439,1.049,0.917,1.52,1.43c0.373,0.409,1.006,0.438,1.415,0.065 c0.409-0.373,0.438-1.006,0.065-1.415C43.281,20.625,42.699,20.08,42.08,19.58z"></path><path fill="#8d6c9f" d="M21.9,21.91c0.248-0.001,0.487-0.093,0.67-0.26c3.943-3.57,9.57-4.597,14.52-2.65 c0.522,0.179,1.091-0.099,1.271-0.621c0.168-0.491-0.066-1.029-0.541-1.239c-5.669-2.214-12.103-1.02-16.6,3.08 c-0.409,0.371-0.439,1.004-0.067,1.413c0.189,0.208,0.457,0.327,0.737,0.327L21.9,21.91z"></path><path fill="#8d6c9f" d="M32,44c-0.552,0-1,0.448-1,1v2c0,0.552,0.448,1,1,1s1-0.448,1-1v-2C33,44.448,32.552,44,32,44z"></path><path fill="#8d6c9f" d="M37.8,43.68c-0.176-0.524-0.743-0.806-1.266-0.63c-0.524,0.176-0.806,0.743-0.63,1.266 c0.013,0.039,0.028,0.077,0.046,0.114l0.75,1.85c0.176,0.524,0.743,0.806,1.266,0.63c0.524-0.176,0.806-0.743,0.63-1.266 c-0.013-0.039-0.028-0.077-0.046-0.114L37.8,43.68z"></path><path fill="#8d6c9f" d="M27.5,43.13c-0.511-0.206-1.092,0.04-1.3,0.55l-0.75,1.85c-0.238,0.498-0.028,1.095,0.47,1.334 c0.498,0.238,1.095,0.028,1.334-0.47c0.018-0.037,0.033-0.075,0.046-0.113l0.75-1.85C28.256,43.919,28.01,43.338,27.5,43.13z"></path><path fill="#8d6c9f" d="M22.1,40.49l-1.41,1.41c-0.419,0.359-0.468,0.991-0.109,1.41c0.359,0.419,0.991,0.468,1.41,0.109 c0.039-0.034,0.076-0.07,0.109-0.109l1.41-1.41c0.359-0.419,0.31-1.051-0.109-1.41C23.027,40.169,22.474,40.169,22.1,40.49z"></path><path fill="#8d6c9f" d="M21,36.69c-0.216-0.508-0.802-0.745-1.31-0.53l-1.84,0.78c-0.516,0.196-0.776,0.773-0.581,1.289 c0.196,0.516,0.773,0.776,1.289,0.581c0.024-0.009,0.048-0.019,0.071-0.03L20.42,38c0.518-0.192,0.782-0.768,0.589-1.286 C21.006,36.706,21.003,36.698,21,36.69z"></path><g><line x1="5.099" x2="8.81" y1="42.833" y2="41.339" fill="none" stroke="#8d6c9f" stroke-linecap="round" stroke-miterlimit="10" stroke-width="2"></line><line x1="55.19" x2="58.901" y1="22.661" y2="21.167" fill="none" stroke="#8d6c9f" stroke-linecap="round" stroke-miterlimit="10" stroke-width="2"></line><line x1="21.135" x2="22.633" y1="58.888" y2="55.179" fill="none" stroke="#8d6c9f" stroke-linecap="round" stroke-miterlimit="10" stroke-width="2"></line><line x1="41.367" x2="42.865" y1="8.821" y2="5.112" fill="none" stroke="#8d6c9f" stroke-linecap="round" stroke-miterlimit="10" stroke-width="2"></line><line x1="5.096" x2="8.807" y1="21.174" y2="22.667" fill="none" stroke="#8d6c9f" stroke-linecap="round" stroke-miterlimit="10" stroke-width="2"></line><line x1="55.193" x2="58.904" y1="41.333" y2="42.826" fill="none" stroke="#8d6c9f" stroke-linecap="round" stroke-miterlimit="10" stroke-width="2"></line><line x1="21.131" x2="22.63" y1="5.114" y2="8.822" fill="none" stroke="#8d6c9f" stroke-linecap="round" stroke-miterlimit="10" stroke-width="2"></line><line x1="41.37" x2="42.869" y1="55.178" y2="58.886" fill="none" stroke="#8d6c9f" stroke-linecap="round" stroke-miterlimit="10" stroke-width="2"></line></g><g><line x1="1" x2="7" y1="32" y2="32" fill="none" stroke="#8d6c9f" stroke-linecap="round" stroke-miterlimit="10" stroke-width="2"></line><line x1="57" x2="63" y1="32" y2="32" fill="none" stroke="#8d6c9f" stroke-linecap="round" stroke-miterlimit="10" stroke-width="2"></line><line x1="32" x2="32" y1="63" y2="57" fill="none" stroke="#8d6c9f" stroke-linecap="round" stroke-miterlimit="10" stroke-width="2"></line><line x1="32" x2="32" y1="7" y2="1" fill="none" stroke="#8d6c9f" stroke-linecap="round" stroke-miterlimit="10" stroke-width="2"></line><line x1="10.08" x2="14.322" y1="53.92" y2="49.678" fill="none" stroke="#8d6c9f" stroke-linecap="round" stroke-miterlimit="10" stroke-width="2"></line><line x1="49.678" x2="53.92" y1="14.322" y2="10.08" fill="none" stroke="#8d6c9f" stroke-linecap="round" stroke-miterlimit="10" stroke-width="2"></line><line x1="10.08" x2="14.322" y1="10.08" y2="14.322" fill="none" stroke="#8d6c9f" stroke-linecap="round" stroke-miterlimit="10" stroke-width="2"></line><line x1="49.678" x2="53.92" y1="49.678" y2="53.92" fill="none" stroke="#8d6c9f" stroke-linecap="round" stroke-miterlimit="10" stroke-width="2"></line></g><g><line x1="5.099" x2="8.81" y1="42.833" y2="41.339" fill="none" stroke="#8d6c9f" stroke-linecap="round" stroke-miterlimit="10" stroke-width="2"></line><line x1="55.19" x2="58.901" y1="22.661" y2="21.167" fill="none" stroke="#8d6c9f" stroke-linecap="round" stroke-miterlimit="10" stroke-width="2"></line><line x1="21.135" x2="22.633" y1="58.888" y2="55.179" fill="none" stroke="#8d6c9f" stroke-linecap="round" stroke-miterlimit="10" stroke-width="2"></line><line x1="41.367" x2="42.865" y1="8.821" y2="5.112" fill="none" stroke="#8d6c9f" stroke-linecap="round" stroke-miterlimit="10" stroke-width="2"></line><line x1="5.096" x2="8.807" y1="21.174" y2="22.667" fill="none" stroke="#8d6c9f" stroke-linecap="round" stroke-miterlimit="10" stroke-width="2"></line><line x1="55.193" x2="58.904" y1="41.333" y2="42.826" fill="none" stroke="#8d6c9f" stroke-linecap="round" stroke-miterlimit="10" stroke-width="2"></line><line x1="21.131" x2="22.63" y1="5.114" y2="8.822" fill="none" stroke="#8d6c9f" stroke-linecap="round" stroke-miterlimit="10" stroke-width="2"></line><line x1="41.37" x2="42.869" y1="55.178" y2="58.886" fill="none" stroke="#8d6c9f" stroke-linecap="round" stroke-miterlimit="10" stroke-width="2"></line><g><line x1="1" x2="7" y1="32" y2="32" fill="none" stroke="#8d6c9f" stroke-linecap="round" stroke-miterlimit="10" stroke-width="2"></line><line x1="57" x2="63" y1="32" y2="32" fill="none" stroke="#8d6c9f" stroke-linecap="round" stroke-miterlimit="10" stroke-width="2"></line><line x1="32" x2="32" y1="63" y2="57" fill="none" stroke="#8d6c9f" stroke-linecap="round" stroke-miterlimit="10" stroke-width="2"></line><line x1="32" x2="32" y1="7" y2="1" fill="none" stroke="#8d6c9f" stroke-linecap="round" stroke-miterlimit="10" stroke-width="2"></line><line x1="10.08" x2="14.322" y1="53.92" y2="49.678" fill="none" stroke="#8d6c9f" stroke-linecap="round" stroke-miterlimit="10" stroke-width="2"></line><line x1="49.678" x2="53.92" y1="14.322" y2="10.08" fill="none" stroke="#8d6c9f" stroke-linecap="round" stroke-miterlimit="10" stroke-width="2"></line><line x1="10.08" x2="14.322" y1="10.08" y2="14.322" fill="none" stroke="#8d6c9f" stroke-linecap="round" stroke-miterlimit="10" stroke-width="2"></line><line x1="49.678" x2="53.92" y1="49.678" y2="53.92" fill="none" stroke="#8d6c9f" stroke-linecap="round" stroke-miterlimit="10" stroke-width="2"></line></g></g>
</svg>