<svg width="1053" height="488" viewBox="0 0 1053 488" fill="none" xmlns="http://www.w3.org/2000/svg">
<path d="M0 440C0 456.802 0 465.203 3.2698 471.62C6.14601 477.265 10.7354 481.854 16.3803 484.731C22.7976 488 31.1984 488 48 488H989.732C1017.9 488 1031.99 488 1039.95 482.102C1046.88 476.961 1051.27 469.079 1051.98 460.474C1052.8 450.602 1045.37 438.633 1030.52 414.695L835.592 100.51C831.022 93.144 828.737 89.4609 825.681 86.6643C822.973 84.1871 819.835 82.2276 816.42 80.8832C812.565 79.3654 808.253 78.9298 799.628 78.0587L52.8234 2.63242C34.5213 0.783936 25.3703 -0.14032 18.2959 2.85718C12.0819 5.49011 6.93725 10.1414 3.69321 16.0593C0 22.7967 0 31.9943 0 50.3895V440Z" fill="white"/>
</svg>
