<svg xmlns="http://www.w3.org/2000/svg" aria-hidden="true" style="width:0;height:0;position:absolute;overflow:hidden"><defs><symbol id="icon-heart" viewBox="0 0 21 19"><path d="m10.5 19-1.523-1.367C3.57 12.798 0 9.61 0 5.695 0 2.505 2.541 0 5.775 0c1.827 0 3.58.839 4.725 2.164A6.324 6.324 0 0 1 15.225 0C18.459 0 21 2.506 21 5.695c0 3.914-3.57 7.103-8.977 11.949L10.5 19Z" fill="#FD5103"/><path d="m10.5 17-1.232-1.079C4.89 12.104 2 9.586 2 6.496 2 3.978 4.057 2 6.675 2c1.479 0 2.898.662 3.825 1.708A5.175 5.175 0 0 1 14.325 2C16.943 2 19 3.978 19 6.496c0 3.09-2.89 5.607-7.268 9.433L10.5 17Z" fill="#FCFCFC"/><path d="m10.5 17-1.232-1.079C4.89 12.104 2 9.586 2 6.496 2 3.978 4.057 2 6.675 2c1.479 0 2.898.662 3.825 1.708A5.175 5.175 0 0 1 14.325 2C16.943 2 19 3.978 19 6.496c0 3.09-2.89 5.607-7.268 9.433L10.5 17Z"/></symbol><symbol id="icon-arrow-down" viewBox="0 0 13 8" fill="#FD5103"><path d="M.843 1.593 6.5 7.25l5.657-5.657-.707-.707-4.95 4.95L1.55.886l-.707.707Z"/></symbol><symbol id="icon-close" viewBox="0 0 18 18"><path d="m10.254 9 7.369-7.369A.888.888 0 0 0 16.369.378L9 7.747 1.632.369A.893.893 0 1 0 .369 1.63L7.747 9 .37 16.369a.89.89 0 1 0 1.254 1.253L9 10.253l7.37 7.37a.889.889 0 0 0 1.253-1.254L10.253 9Z"/></symbol><symbol id="icon-burger-logo" viewBox="0 0 56 32"><path d="M1.882.941h52.706a1.882 1.882 0 1 1 0 3.764H1.882a1.882 1.882 0 1 1 0-3.764zM1.882 14.118h52.706a1.882 1.882 0 1 1 0 3.764H1.882a1.882 1.882 0 1 1 0-3.764zM1.882 27.294h52.706a1.882 1.882 0 1 1 0 3.764H1.882a1.882 1.882 0 1 1 0-3.764z"/></symbol><symbol id="icon-search-icon" viewBox="0 0 31 32"><path fill="#fd5103" style="fill:var(--color1,#fd5103)" d="M12.8 23.68c2.272 0 4.478-.761 6.268-2.161l5.627 5.627 1.81-1.81-5.627-5.627a10.184 10.184 0 0 0 2.162-6.269c0-5.646-4.594-10.24-10.24-10.24S2.56 7.794 2.56 13.44 7.154 23.68 12.8 23.68zm0-17.92c4.236 0 7.68 3.444 7.68 7.68s-3.444 7.68-7.68 7.68-7.68-3.444-7.68-7.68 3.444-7.68 7.68-7.68z"/></symbol><symbol id="icon-ep_arrow-up" viewBox="0 0 32 32"><path d="m16.724 21.24 10.62-11.146a1.001 1.001 0 0 0 0-1.38l-.012-.012a.921.921 0 0 0-1.334 0l-10 10.496L6.002 8.702a.921.921 0 0 0-1.334 0l-.012.012a1.001 1.001 0 0 0 0 1.38l10.62 11.146a.994.994 0 0 0 .724.31.993.993 0 0 0 .724-.31z"/></symbol></defs></svg>