<svg aria-hidden="true" style="width:0;height:0;position:absolute;overflow:hidden" xmlns="http://www.w3.org/2000/svg"><defs><symbol id="close" viewBox="0 0 32 32"><path d="m17.88 16 5.733-5.72a1.339 1.339 0 0 0-1.894-1.894l-5.72 5.733-5.72-5.733a1.339 1.339 0 0 0-1.894 1.894L14.118 16l-5.733 5.72a1.333 1.333 0 0 0 0 1.894 1.333 1.333 0 0 0 1.894 0l5.72-5.733 5.72 5.733a1.333 1.333 0 0 0 1.894 0 1.333 1.333 0 0 0 0-1.894z"/></symbol><symbol id="icon-heart-1" viewBox="0 0 14 13"><path d="m7 12.88-.98-.98C2.38 8.68 0 6.51 0 3.85 0 1.68 1.68 0 3.85 0 5.04 0 6.23.56 7 1.47 7.77.56 8.96 0 10.15 0 12.32 0 14 1.68 14 3.85c0 2.66-2.38 4.83-6.02 8.05l-.98.98Z"/></symbol><symbol id="app-store" viewBox="0 0 32 32"><path d="M23.667 4A4.333 4.333 0 0 1 28 8.333v15.333a4.333 4.333 0 0 1-4.333 4.333H8.334a4.333 4.333 0 0 1-4.333-4.333V8.333A4.333 4.333 0 0 1 8.334 4h15.333zM12.492 20.339h-2.319l-.089.155-.06.121a1 1 0 0 0 1.709 1.002l.002-.002.076-.113.68-1.163zm5.232-6.974-1.161 1.989 3.544 6.144.075.113a1 1 0 0 0 1.715-.997l.002.007-.06-.123-.669-1.16h1.167l.136-.008c.444-.063.792-.41.854-.849l.001-.005.009-.136-.009-.136a1.002 1.002 0 0 0-.849-.854l-.005-.001-.136-.009h-2.32l-2.293-3.973zm-.04-3.897a.999.999 0 0 0-1.291.244l-.002.002-.076.113-.32.545-.312-.541-.075-.112a1 1 0 0 0-1.162-.318l.007-.002-.135.067-.113.075a1 1 0 0 0-.316 1.163l-.002-.007.067.133.883 1.531-2.908 4.979H9.67l-.136.009a1 1 0 0 0-.006 1.981l.005.001.136.009h8.036l-1.153-2-2.308-.001 3.8-6.503.06-.12a1.001 1.001 0 0 0-.415-1.246l-.005-.003z"/></symbol><symbol id="facebook" viewBox="0 0 32 32"><path d="M32 16.097c0-8.836-7.164-16-16-16s-16 7.164-16 16c0 7.987 5.851 14.605 13.5 15.805v-11.18H9.437v-4.627H13.5v-3.523c0-4.009 2.389-6.225 6.044-6.225 1.749 0 3.581.313 3.581.313v3.937h-2.019c-1.988 0-2.608 1.233-2.608 2.499v3h4.437l-.709 4.627h-3.728v11.18c7.651-1.201 13.501-7.821 13.501-15.807z"/></symbol><symbol id="google-play" viewBox="0 0 32 32"><path d="m17 14.5 4.2-4.5L4.9 1.2c-.1-.1-.3-.1-.6-.2L17 14.5zm6 6.5 5.9-3.2c.7-.4 1.1-1 1.1-1.8s-.4-1.5-1.1-1.8L23 11l-4.7 5 4.7 5zM2.4 1.9c-.3.3-.4.7-.4 1.1v26c0 .4.1.8.4 1.2L15.6 16 2.4 1.9zM17 17.5 4.3 31c.2 0 .4-.1.6-.2L21.2 22 17 17.5z"/></symbol><symbol id="instagram" viewBox="0 0 32 32"><path d="M31.969 9.408c-.075-1.7-.35-2.869-.744-3.882a7.806 7.806 0 0 0-1.851-2.838A7.867 7.867 0 0 0 26.542.844C25.523.45 24.36.175 22.66.1 20.947.019 20.403 0 16.059 0s-4.888.019-6.595.094c-1.7.075-2.869.35-3.882.744a7.803 7.803 0 0 0-2.838 1.85A7.867 7.867 0 0 0 .9 5.52C.506 6.539.231 7.702.156 9.402c-.081 1.713-.1 2.257-.1 6.601s.019 4.888.094 6.595c.075 1.7.35 2.869.744 3.882a7.895 7.895 0 0 0 1.85 2.838 7.867 7.867 0 0 0 2.832 1.844c1.019.394 2.182.669 3.882.744 1.706.075 2.25.094 6.595.094s4.888-.019 6.595-.094c1.7-.075 2.869-.35 3.882-.744a8.184 8.184 0 0 0 4.682-4.682c.394-1.019.669-2.182.744-3.882.075-1.707.094-2.251.094-6.595s-.006-4.888-.081-6.595zm-2.882 13.065c-.069 1.563-.331 2.407-.55 2.969a5.31 5.31 0 0 1-3.038 3.038c-.563.219-1.413.481-2.969.55-1.688.075-2.194.094-6.464.094s-4.782-.019-6.464-.094c-1.563-.069-2.407-.331-2.969-.55a4.926 4.926 0 0 1-1.838-1.194 4.974 4.974 0 0 1-1.194-1.838c-.219-.563-.481-1.413-.55-2.969-.075-1.688-.094-2.194-.094-6.464s.019-4.782.094-6.464c.069-1.563.331-2.407.55-2.969a4.868 4.868 0 0 1 1.2-1.838A4.974 4.974 0 0 1 6.639 3.55c.563-.219 1.413-.481 2.969-.55 1.688-.075 2.194-.094 6.464-.094 4.276 0 4.782.019 6.464.094 1.563.069 2.407.331 2.969.55a4.914 4.914 0 0 1 1.838 1.194 4.974 4.974 0 0 1 1.194 1.838c.219.563.481 1.413.55 2.969.075 1.688.094 2.194.094 6.464s-.019 4.77-.094 6.458z"/><path d="M16.059 7.783c-4.538 0-8.22 3.682-8.22 8.22s3.682 8.22 8.22 8.22c4.539 0 8.22-3.682 8.22-8.22s-3.682-8.22-8.22-8.22zm0 13.552a5.333 5.333 0 0 1 0-10.664 5.333 5.333 0 0 1 0 10.664zM26.524 7.458a1.919 1.919 0 1 1-3.838 0 1.919 1.919 0 0 1 3.838 0z"/></symbol><symbol id="twitter" viewBox="0 0 32 32"><path d="M31.275 5.924c-.419.193-.933.385-1.462.542l-.086.022a6.831 6.831 0 0 0 1.379-2.401l.014-.048a.516.516 0 0 0-.757-.599l.002-.001a11.92 11.92 0 0 1-3.519 1.407l-.082.016a6.903 6.903 0 0 0-4.808-1.96c-3.788 0-6.87 3.082-6.87 6.869 0 .298.019.595.056.888A17.59 17.59 0 0 1 3.071 4.255a.516.516 0 0 0-.845.064l-.001.002a6.862 6.862 0 0 0-.93 3.454c0 1.655.591 3.226 1.635 4.453a5.775 5.775 0 0 1-.949-.426l.029.015a.516.516 0 0 0-.767.439v.001l-.001.092a6.892 6.892 0 0 0 3.363 5.907 5.816 5.816 0 0 1-.56-.082l.038.006a.516.516 0 0 0-.587.668l-.001-.004a6.867 6.867 0 0 0 5.032 4.604 12.151 12.151 0 0 1-6.496 1.854h-.002c-.512 0-1.017-.031-1.513-.091l.06.006a.516.516 0 0 0-.342.945l.002.001a18.525 18.525 0 0 0 10.018 2.936c6.994 0 11.369-3.298 13.808-6.065 3.041-3.45 4.785-8.016 4.785-12.528 0-.188-.003-.379-.009-.569a13.345 13.345 0 0 0 3.073-3.255.516.516 0 0 0-.641-.757l.003-.001z"/></symbol><symbol id="youtube" viewBox="0 0 32 32"><path d="M30.753 6.673C29.598 5.3 27.465 4.74 23.392 4.74H8.607c-4.166 0-6.335.596-7.486 2.058C-.001 8.223-.001 10.323-.001 13.23v5.54c0 5.631 1.331 8.49 8.608 8.49h14.785c3.532 0 5.489-.494 6.755-1.706 1.298-1.243 1.852-3.272 1.852-6.784v-5.54c0-3.065-.087-5.178-1.247-6.557zM20.544 16.765l-6.714 3.509a1.032 1.032 0 0 1-1.51-.914v-6.996a1.032 1.032 0 0 1 1.513-.913l-.006-.003 6.714 3.486a1.03 1.03 0 0 1 .008 1.828l-.006.003z"/></symbol></defs></svg>